<svg xmlns="http://www.w3.org/2000/svg" xmlns:xlink="http://www.w3.org/1999/xlink" width="500" zoomAndPan="magnify" viewBox="0 0 375 374.999991" height="500" preserveAspectRatio="xMidYMid meet" version="1.2"><defs><clipPath id="1b4bacd307"><path d="M 3.75 3.75 L 371.25 3.75 L 371.25 371.25 L 3.75 371.25 Z M 3.75 3.75 "/></clipPath><clipPath id="ad96bf05a4"><path d="M 187.5 3.75 C 86.019531 3.75 3.75 86.019531 3.75 187.5 C 3.75 288.980469 86.019531 371.25 187.5 371.25 C 288.980469 371.25 371.25 288.980469 371.25 187.5 C 371.25 86.019531 288.980469 3.75 187.5 3.75 Z M 187.5 3.75 "/></clipPath><clipPath id="34a43f1980"><path d="M 3 3 L 372 3 L 372 372 L 3 372 Z M 3 3 "/></clipPath></defs><g id="697d184a06"><g clip-rule="nonzero" clip-path="url(#1b4bacd307)"><g clip-rule="nonzero" clip-path="url(#ad96bf05a4)"><path style=" stroke:none;fill-rule:nonzero;fill:#c4123f;fill-opacity:1;" d="M 3.75 3.75 L 371.25 3.75 L 371.25 371.25 L 3.75 371.25 Z M 3.75 3.75 "/></g></g><g clip-rule="nonzero" clip-path="url(#34a43f1980)"><path style=" stroke:none;fill-rule:nonzero;fill:#ffffff;fill-opacity:1;" d="M 187.496094 3.027344 C 85.761719 3.027344 3 85.796875 3 187.53125 C 3 289.265625 85.761719 372.03125 187.496094 372.03125 C 289.230469 372.03125 372 289.265625 372 187.53125 C 372 85.796875 289.230469 3.027344 187.496094 3.027344 Z M 155.5625 139.414062 L 187.496094 105.9375 L 219.433594 139.414062 Z M 198.902344 148.171875 C 198.550781 149.265625 197.996094 150.429688 197.066406 151.421875 C 195.113281 153.535156 191.898438 154.601562 187.496094 154.601562 C 183.101562 154.601562 179.878906 153.535156 177.933594 151.421875 C 177.003906 150.429688 176.449219 149.265625 176.097656 148.171875 Z M 187.496094 191.910156 L 226.546875 191.910156 C 250.558594 191.910156 255.757812 214.582031 255.757812 220.195312 L 255.757812 227.222656 C 228.539062 229.148438 218.703125 248.925781 218.703125 266.007812 L 218.703125 274.792969 L 156.292969 274.792969 L 156.292969 266.007812 C 156.292969 248.925781 146.460938 229.148438 119.246094 227.222656 L 119.246094 220.195312 C 119.246094 214.582031 124.441406 191.910156 148.445312 191.910156 Z M 114.867188 235.785156 C 145.179688 235.785156 147.53125 258.914062 147.53125 266.007812 L 147.53125 279.171875 C 147.53125 281.589844 149.496094 283.550781 151.910156 283.550781 L 223.082031 283.550781 C 225.5 283.550781 227.460938 281.589844 227.460938 279.171875 L 227.460938 266.007812 C 227.460938 258.914062 229.820312 235.785156 260.136719 235.785156 C 269.140625 235.785156 275.546875 239.199219 279.171875 245.921875 C 285.59375 257.820312 282.195312 277.53125 274.996094 288.46875 C 261.996094 308.222656 231.738281 318.671875 187.496094 318.671875 C 143.253906 318.671875 112.996094 308.222656 100 288.46875 C 92.804688 277.53125 89.410156 257.820312 95.820312 245.921875 C 99.445312 239.199219 105.859375 235.785156 114.867188 235.785156 Z M 251.976562 332.433594 L 246.25 319.191406 C 247.175781 318.875 248.078125 318.53125 248.976562 318.191406 Z M 126.023438 318.191406 C 126.917969 318.53125 127.824219 318.875 128.75 319.191406 L 123.023438 332.433594 Z M 124.328125 351.484375 L 137.1875 321.761719 C 151.289062 325.511719 168.042969 327.429688 187.496094 327.429688 C 206.949219 327.429688 223.707031 325.511719 237.808594 321.761719 L 250.671875 351.484375 C 231.054688 359.066406 209.765625 363.277344 187.496094 363.277344 C 165.234375 363.277344 143.945312 359.066406 124.328125 351.484375 Z M 263.753906 345.847656 L 257.175781 314.632812 C 268.085938 309.214844 276.507812 302.109375 282.3125 293.28125 C 291.050781 279.992188 295.152344 257.101562 286.886719 241.773438 C 283.625 235.71875 277.09375 228.667969 264.515625 227.3125 L 264.515625 220.195312 C 264.515625 208.585938 254.953125 183.152344 226.546875 183.152344 L 148.445312 183.152344 C 120.046875 183.152344 110.488281 208.585938 110.488281 220.195312 L 110.488281 227.3125 C 97.902344 228.667969 91.375 235.71875 88.109375 241.773438 C 79.847656 257.101562 83.949219 279.992188 92.683594 293.28125 C 98.488281 302.109375 106.914062 309.214844 117.820312 314.632812 L 111.246094 345.847656 C 52.425781 317.402344 11.757812 257.125 11.757812 187.53125 C 11.757812 92.089844 88.234375 14.238281 183.117188 11.898438 L 183.117188 97.839844 L 142.167969 140.765625 C 140.953125 142.03125 140.621094 143.90625 141.304688 145.515625 C 142 147.121094 143.582031 148.171875 145.332031 148.171875 L 167.074219 148.171875 C 167.550781 150.871094 168.691406 154.285156 171.402344 157.261719 C 175.078125 161.3125 180.492188 163.363281 187.496094 163.363281 C 194.503906 163.363281 199.921875 161.3125 203.601562 157.261719 C 206.308594 154.285156 207.449219 150.871094 207.925781 148.171875 L 229.660156 148.171875 C 231.417969 148.171875 233.003906 147.121094 233.6875 145.515625 C 234.382812 143.90625 234.042969 142.03125 232.832031 140.765625 L 191.875 97.839844 L 191.875 11.898438 C 286.761719 14.238281 363.242188 92.089844 363.242188 187.53125 C 363.242188 257.125 322.570312 317.402344 263.753906 345.847656 Z M 263.753906 345.847656 "/></g></g></svg>