<svg xmlns="http://www.w3.org/2000/svg" width="117" height="106" viewBox="0 0 117 106">
<g>
<path d="M 113.20,93.74 L 113.14,94.46 L 113.06,95.72 L 113.01,97.17 L 113.01,97.54 L 112.80,98.45 L 112.67,98.93 L 112.24,99.97 L 110.41,102.92 L 109.70,103.77 L 108.29,104.89 L 107.91,105.13 L 107.04,105.47 L 106.57,105.62 L 105.46,105.80 L 104.86,105.87 L 103.40,105.89 L 102.63,105.89 L 100.74,105.78 L 99.74,105.70 L 97.32,105.46 L 96.04,105.32 L 93.00,104.96 L 92.55,104.91 L 90.88,104.74 L 89.93,104.64 L 87.33,104.40 L 85.93,104.27 L 82.55,103.96 L 81.09,103.83 L 81.77,103.84 L 82.05,103.80 L 82.45,103.68 L 82.44,103.56 L 82.28,103.29 L 82.00,103.09 L 81.41,102.57 L 81.33,102.33 L 81.47,102.24 L 81.85,102.11 L 82.23,102.07 L 83.11,102.02 L 83.75,102.02 L 86.05,102.30 L 86.58,102.50 L 86.74,102.62 L 87.00,102.87 L 87.00,103.01 L 87.39,103.39 L 88.03,103.56 L 88.53,103.59 L 89.63,103.63 L 90.34,103.61 L 91.85,103.52 L 92.75,103.43 L 95.20,103.23 L 96.38,103.19 L 96.74,103.23 L 97.31,103.32 L 97.37,103.42 L 97.34,103.65 L 97.10,103.82 L 96.48,104.33 L 96.31,104.60 L 96.35,104.71 L 96.50,104.91 L 96.71,105.01 L 97.22,105.20 L 97.60,105.31 L 98.24,105.44 L 98.70,105.49 L 99.69,105.59 L 100.27,105.62 L 102.76,105.70 L 104.00,105.66 L 106.17,105.50 L 107.21,105.32 L 107.56,105.18 L 108.14,104.86 L 108.29,104.64 L 108.51,104.15 L 108.51,103.82 L 108.79,102.39 L 109.18,101.55 L 109.42,101.32 L 109.84,101.15 L 109.74,101.56 L 109.50,102.00 L 109.16,102.85 L 109.31,102.92 L 109.58,102.68 L 110.15,102.02 L 110.41,101.46 L 110.49,100.99 L 110.64,99.92 L 110.69,99.07 L 110.74,98.15 L 110.77,97.60 L 110.82,96.41 L 110.85,95.69 L 111.22,93.16 L 111.42,92.65 L 111.54,92.52 L 111.77,92.36 L 111.90,92.44 L 112.71,92.40 L 113.19,91.84 L 113.38,91.34 L 113.43,91.16 M 26.21,97.03 L 27.44,97.21 L 28.01,97.43 L 29.07,97.96 L 29.39,98.35 L 29.96,98.71 L 30.64,98.95 L 31.12,99.06 L 32.20,99.30 L 32.89,99.42 L 34.39,99.67 L 35.31,99.79 L 37.25,100.04 L 38.40,100.17 L 39.54,100.29 L 37.98,100.16 L 34.21,99.84 L 32.38,99.69 L 29.08,99.40 L 27.48,99.26 L 24.61,99.01 L 23.23,98.88 L 22.41,98.81 L 23.12,98.71 L 23.61,98.51 L 23.76,98.39 L 24.00,98.14 L 24.00,98.00 L 24.66,97.21 L 25.62,96.99 M 16.28,96.09 L 16.99,96.25 L 17.24,96.37 L 17.68,96.65 L 17.81,96.84 L 18.00,97.25 L 18.00,97.50 L 18.19,98.16 L 18.43,98.42 L 17.48,98.33 L 16.47,98.22 L 14.71,98.03 L 13.87,97.93 L 12.61,97.77 L 12.65,97.65 L 12.67,97.27 L 12.50,97.00 L 12.48,96.60 L 12.70,96.37 L 12.92,96.28 L 14.05,96.00 L 14.94,96.00 M 6.33,96.51 L 6.28,96.50 L 5.53,96.09 L 5.03,95.68 M 2.11,92.63 L 2.84,93.49 L 3.30,93.97 L 4.29,94.99 L 4.77,95.46 L 4.67,95.39 L 4.10,94.81 L 3.16,93.83 L 2.72,93.36 L 2.03,92.54 L 1.69,92.12 M 85.65,88.40 L 85.81,89.06 L 85.61,89.58 L 85.18,90.97 L 85.00,91.83 L 85.00,92.08 L 84.89,92.56 L 84.71,92.73 L 84.27,93.00 L 84.00,93.00 L 83.29,92.27 L 83.00,91.19 L 83.00,90.50 L 83.41,88.64 L 84.08,88.00 L 84.61,88.00 M 1.43,91.79 L 1.38,91.73 L 0.80,90.41 M 0.71,90.21 L 0.70,90.19 L 0.63,89.97 M 54.09,86.20 L 55.41,86.73 L 56.03,87.25 L 56.19,87.54 L 56.39,88.14 L 56.32,88.43 L 56.04,88.99 L 55.70,89.21 L 55.01,89.61 L 54.70,89.75 L 54.14,89.97 L 54.00,89.97 L 53.30,89.75 L 52.63,89.42 L 52.30,89.21 L 51.67,88.27 L 51.72,87.53 L 51.92,87.19 L 52.43,86.55 L 52.81,86.36 L 53.62,86.10 M 0.43,88.89 L 0.58,89.81 L 0.44,89.37 L 0.42,88.79 M 30.57,73.23 L 30.73,73.40 L 30.74,73.83 L 30.31,74.02 L 29.92,74.02 L 29.42,74.14 L 29.31,74.32 L 29.37,74.46 L 29.57,74.79 L 29.78,75.01 L 30.27,75.48 L 30.63,75.77 L 31.69,76.78 L 32.54,77.69 L 33.01,78.23 L 34.92,80.56 L 35.74,81.72 L 36.97,83.30 L 37.75,84.17 L 38.09,84.48 L 38.74,85.03 L 38.98,85.16 L 39.42,85.31 L 39.53,85.22 L 39.88,85.08 L 39.80,85.41 L 39.60,85.75 L 39.16,86.50 L 38.94,86.68 L 38.48,86.90 L 38.14,86.76 L 37.35,86.31 L 36.73,85.80 L 36.07,85.23 L 35.66,84.87 L 34.78,84.08 L 34.25,83.60 L 31.53,80.63 L 30.06,78.52 L 29.57,77.53 L 28.77,75.65 L 28.68,74.93 L 28.65,74.25 L 28.73,73.99 L 28.95,73.53 L 29.16,73.40 L 30.02,73.15 M 113.01,84.00 L 113.47,84.20 L 113.67,84.35 L 113.87,84.97 L 113.94,85.35 L 113.91,86.41 L 113.62,84.75 L 113.35,84.31 L 113.17,84.19 L 112.77,84.00 M 70.39,72.05 L 70.55,72.43 L 70.67,72.86 L 70.66,73.16 L 70.59,73.83 L 70.46,74.25 L 69.58,76.52 L 68.76,78.14 L 68.25,78.97 L 66.01,82.29 L 64.69,83.75 L 63.57,84.87 L 63.06,85.23 L 62.05,85.81 L 61.60,85.90 L 60.73,85.93 L 60.36,85.74 L 59.67,85.22 L 59.40,84.75 L 59.12,84.08 L 59.26,84.02 L 59.47,84.22 L 60.04,84.22 L 60.58,83.92 L 60.91,83.64 L 61.62,83.01 L 62.01,82.60 L 62.81,81.72 L 63.22,81.21 L 64.88,79.06 L 65.59,77.92 L 66.89,75.68 L 67.22,74.75 L 68.38,72.76 L 69.28,72.02 L 69.67,71.96 M 49.28,78.11 L 49.69,78.54 L 49.79,78.97 L 49.90,79.97 L 49.82,80.67 L 49.55,81.82 L 49.29,82.33 L 48.71,83.29 L 48.38,83.62 L 47.72,84.14 L 47.45,84.16 L 46.96,84.00 L 46.88,83.58 L 46.62,82.11 L 46.57,81.32 L 46.61,80.98 L 46.90,79.80 L 47.31,79.25 L 48.41,78.19 L 49.04,77.98 M 110.95,83.39 L 111.71,83.76 L 112.67,84.00 L 112.53,84.00 L 111.66,83.77 L 110.97,83.42 L 110.58,83.15 L 108.95,81.89 L 108.91,81.86 L 110.54,83.12 M 0.65,82.60 L 0.58,83.49 L 0.65,82.65 L 0.69,82.11 M 86.42,74.16 L 86.75,74.45 L 86.82,74.72 L 86.92,75.36 L 86.89,75.84 L 86.79,76.92 L 86.67,77.66 L 86.42,79.05 L 86.28,79.61 L 86.00,80.67 L 85.85,81.07 L 85.55,81.78 L 85.41,82.01 L 85.11,82.38 L 84.98,82.43 L 84.71,82.45 L 84.59,82.33 L 84.37,81.98 L 84.28,81.68 L 84.12,80.97 L 84.08,80.47 L 84.00,79.39 L 84.00,78.70 L 84.08,76.41 L 84.21,75.33 L 84.34,74.97 L 84.62,74.37 L 84.84,74.22 L 85.31,74.00 L 85.63,74.00 M 0.93,79.52 L 0.86,80.22 L 0.73,81.71 L 0.73,81.66 L 0.87,80.04 L 0.95,79.28 L 1.07,78.42 M 108.30,81.25 L 108.12,81.07 L 108.01,80.95 M 114.71,63.17 L 113.91,63.61 L 112.22,64.09 L 111.34,64.27 L 109.54,64.89 L 107.61,65.91 L 107.05,66.37 L 106.07,67.81 L 105.61,68.58 L 104.91,70.38 L 104.61,71.29 L 104.31,73.12 L 104.42,75.55 L 104.62,76.33 L 105.72,78.18 L 106.36,79.12 L 107.98,80.92 L 106.51,79.34 L 105.86,78.46 L 104.73,76.72 L 104.50,76.01 L 104.11,74.97 L 103.87,74.57 L 103.75,74.50 L 103.50,74.45 L 103.36,74.56 L 103.08,74.85 L 102.91,75.12 L 102.51,75.56 L 102.31,75.57 L 102.24,75.43 L 102.11,75.05 L 102.07,74.71 L 102.02,73.94 L 102.02,73.40 L 102.19,71.93 L 102.47,70.80 L 102.68,70.21 L 103.66,67.83 L 104.29,66.90 L 105.65,65.10 L 106.47,64.31 L 106.94,64.07 L 107.94,63.69 L 108.60,63.61 L 110.04,63.50 L 111.02,63.50 L 113.47,63.42 L 114.55,63.25 L 114.76,63.12 M 1.18,77.65 L 1.21,77.50 L 1.22,77.45 M 6.58,44.50 L 6.70,44.79 L 6.89,45.52 L 6.94,46.11 L 7.00,47.45 L 7.00,48.39 L 7.08,50.46 L 7.21,51.52 L 7.32,51.89 L 7.57,52.55 L 7.74,52.73 L 8.11,53.00 L 8.35,53.00 L 9.87,53.49 L 11.05,54.24 L 11.66,54.77 L 12.87,55.91 L 13.41,56.56 L 14.42,57.89 L 14.78,58.57 L 15.49,60.45 L 15.77,61.83 L 15.82,62.56 L 15.75,65.57 L 15.38,67.06 L 14.43,70.00 L 13.67,71.27 L 12.87,72.48 L 12.40,73.00 L 11.43,73.98 L 10.89,74.36 L 9.17,75.15 L 8.02,75.36 L 7.55,75.31 L 6.70,75.12 L 6.50,74.89 L 6.29,74.34 L 6.54,73.94 L 6.52,73.68 L 6.28,73.61 L 6.06,73.63 L 4.97,73.81 L 4.18,74.09 L 2.76,74.72 L 2.84,74.65 L 3.18,74.39 L 4.06,73.91 L 4.55,73.67 L 5.76,73.15 L 8.03,72.25 L 8.37,72.11 L 9.16,71.57 L 9.56,71.27 L 10.38,70.48 L 12.50,67.62 L 12.99,66.73 L 13.59,65.48 L 13.83,64.91 L 13.95,64.00 L 13.95,63.54 L 13.59,62.52 L 12.50,60.38 L 11.96,59.36 L 10.14,57.34 L 9.66,56.86 L 8.65,56.05 L 7.16,55.14 L 3.77,53.52 L 4.21,45.27 L 4.26,44.30 L 4.49,44.54 L 4.69,44.55 L 5.13,44.50 L 5.43,44.39 L 6.22,44.28 M 60.38,58.21 L 60.52,58.40 L 60.52,58.55 L 60.46,58.90 L 60.35,59.15 L 60.07,59.70 L 59.84,60.06 L 59.32,60.86 L 58.96,61.36 L 58.19,62.43 L 57.69,63.09 L 56.64,64.50 L 56.00,65.34 L 54.49,67.20 L 53.79,67.91 L 52.43,69.20 L 51.87,69.58 L 50.84,70.16 L 50.51,70.14 L 50.22,70.07 L 50.13,69.95 L 50.00,69.65 L 50.00,69.41 L 50.34,68.39 L 50.86,67.43 L 51.24,66.85 L 53.01,64.33 L 54.08,63.02 L 56.26,60.46 L 57.20,59.54 L 58.10,58.69 L 58.46,58.43 L 59.11,58.01 L 59.30,58.01 M 41.65,56.45 L 42.37,57.15 L 42.77,57.64 L 44.45,59.99 L 45.24,61.38 L 46.72,64.22 L 47.15,65.42 L 47.52,66.56 L 47.59,67.00 L 47.64,67.78 L 47.51,67.98 L 47.51,68.73 L 47.90,69.20 L 48.24,69.34 L 48.91,69.65 L 48.92,69.74 L 48.73,69.89 L 48.32,69.92 L 47.04,69.30 L 45.97,68.22 L 45.34,67.38 L 44.04,65.52 L 43.33,64.32 L 41.87,61.76 L 41.11,60.25 L 39.97,57.91 L 39.57,56.92 L 39.55,56.63 L 39.62,56.19 L 39.83,56.10 L 40.35,56.00 L 40.77,56.00 M 87.41,59.26 L 87.69,59.59 L 87.76,59.93 L 87.88,60.73 L 87.89,61.33 L 87.87,62.67 L 87.81,63.57 L 87.69,64.93 L 87.59,65.53 L 87.36,66.67 L 87.22,67.13 L 86.92,67.97 L 86.74,68.25 L 86.38,68.71 L 86.19,68.77 L 85.59,68.74 L 85.31,68.41 L 85.24,68.07 L 85.12,67.27 L 85.11,66.67 L 85.13,65.33 L 85.19,64.43 L 85.41,62.47 L 85.64,61.33 L 85.78,60.87 L 86.08,60.03 L 86.26,59.75 L 86.62,59.29 L 86.81,59.23 M 54.52,47.05 L 55.47,47.14 L 56.03,47.27 L 58.52,48.06 L 59.87,48.75 L 62.58,50.33 L 63.74,51.35 L 66.52,54.46 L 68.24,56.99 L 68.92,58.26 L 70.12,60.75 L 70.41,61.77 L 70.64,62.73 L 70.66,63.11 L 70.63,63.80 L 70.49,64.01 L 69.93,64.75 L 69.66,64.89 L 69.13,65.00 L 68.88,64.83 L 68.40,64.33 L 68.20,63.87 L 67.81,62.79 L 67.66,62.04 L 67.12,60.43 L 66.54,59.27 L 66.16,58.67 L 64.43,56.22 L 63.37,55.07 L 61.16,52.88 L 60.05,52.07 L 58.95,51.32 L 58.43,51.05 L 57.41,50.59 L 56.96,50.49 L 54.70,49.74 L 53.58,49.13 L 53.41,48.86 L 53.05,47.80 L 53.22,47.33 L 53.47,47.21 L 54.08,47.03 M 46.67,47.26 L 47.02,47.65 L 46.85,47.93 L 46.28,48.53 L 45.68,48.88 L 44.26,49.59 L 43.25,49.95 L 39.49,51.62 L 37.37,52.92 L 36.48,53.69 L 34.78,55.32 L 34.06,56.30 L 32.67,58.36 L 32.06,59.59 L 31.50,60.72 L 31.25,61.18 L 30.79,62.04 L 30.60,62.38 L 29.90,63.48 L 29.64,63.69 L 29.18,63.89 L 28.98,63.70 L 28.60,63.13 L 28.40,62.59 L 28.31,60.56 L 28.80,59.00 L 29.27,58.16 L 30.35,56.44 L 31.06,55.58 L 32.59,53.85 L 33.47,53.02 L 35.31,51.40 L 36.29,50.68 L 38.29,49.32 L 39.30,48.77 L 41.33,47.78 L 42.30,47.48 L 44.21,47.00 L 45.07,47.00 M 116.75,54.93 L 116.70,55.83 L 116.55,57.46 L 116.47,58.01 L 116.54,57.38 L 116.61,56.55 L 116.78,53.99 M 88.60,49.66 L 89.00,50.69 L 89.00,51.44 L 88.92,52.63 L 88.79,53.11 L 88.47,53.97 L 88.24,54.24 L 87.76,54.67 L 87.49,54.69 L 86.92,54.59 L 86.64,54.31 L 86.02,52.93 L 85.93,51.75 L 86.03,51.17 L 86.30,50.04 L 86.55,49.65 L 87.13,49.00 L 87.50,49.00 M 107.82,39.77 L 108.82,39.91 L 110.50,40.26 L 111.29,40.46 L 112.59,40.96 L 113.20,41.23 L 114.18,41.93 L 114.63,42.30 L 115.32,43.21 L 115.63,43.70 L 116.09,44.89 L 116.21,45.27 L 115.77,45.00 L 115.47,45.00 L 114.23,44.59 L 113.55,43.99 L 113.40,43.61 L 112.47,42.76 L 111.49,42.58 L 110.94,42.73 L 109.49,42.73 L 109.00,42.22 L 109.00,41.72 L 108.61,40.54 L 107.97,39.92 L 107.58,39.74 M 60.61,0.98 L 61.12,1.09 L 62.14,1.54 L 63.73,2.53 L 63.88,2.63 L 64.43,3.18 L 64.74,3.50 L 65.58,4.46 L 66.03,4.98 L 67.11,6.28 L 67.68,6.97 L 68.98,8.58 L 69.65,9.42 L 71.11,11.28 L 71.86,12.23 L 73.46,14.30 L 78.52,20.99 L 79.40,22.16 L 80.96,24.27 L 81.71,25.29 L 83.07,27.12 L 83.72,28.00 L 84.90,29.56 L 85.47,30.31 L 86.50,31.62 L 87.50,32.88 L 89.19,34.77 L 90.00,35.63 L 91.51,36.83 L 92.26,37.37 L 93.82,38.06 L 94.64,38.36 L 96.51,38.73 L 97.51,38.89 L 99.94,39.10 L 101.13,39.19 L 101.01,39.21 L 100.82,39.33 L 100.54,39.60 L 100.52,39.79 L 100.53,40.22 L 100.64,40.50 L 100.69,41.18 L 100.51,41.53 L 100.33,41.66 L 99.39,42.03 L 98.74,42.03 L 97.35,41.88 L 96.68,41.62 L 95.38,40.95 L 94.94,40.43 L 94.16,39.68 L 93.42,39.10 L 92.98,38.79 L 91.05,37.54 L 90.07,37.04 L 89.04,36.37 L 88.24,35.73 L 87.79,35.31 L 86.84,34.41 L 86.31,33.85 L 85.20,32.66 L 84.58,31.96 L 83.30,30.49 L 82.60,29.63 L 81.14,27.86 L 80.34,26.85 L 78.69,24.76 L 77.79,23.60 L 75.94,21.18 L 74.93,19.85 L 71.36,15.13 L 69.37,12.54 L 68.54,11.48 L 66.99,9.53 L 66.34,8.76 L 65.13,7.36 L 64.63,6.83 L 63.67,5.88 L 63.26,5.55 L 62.47,4.96 L 62.11,4.78 L 60.71,4.27 L 59.92,4.20 L 57.95,4.25 L 56.68,4.54 L 55.97,4.85 L 54.50,5.61 L 53.61,6.19 L 51.70,7.51 L 50.49,8.43 L 48.40,9.97 L 47.19,10.84 L 46.67,11.19 L 45.70,11.84 L 45.30,12.09 L 44.56,12.52 L 44.28,12.66 L 43.77,12.88 L 43.60,12.91 L 43.33,12.92 L 43.27,12.84 L 43.22,12.64 L 43.28,12.45 L 43.46,12.04 L 43.63,11.75 L 43.92,11.21 L 43.97,11.02 L 43.91,11.01 L 43.75,11.04 L 43.59,11.14 L 43.22,11.40 L 42.94,11.61 L 42.13,12.03 L 41.40,12.26 L 40.98,12.34 L 39.18,12.59 L 38.30,12.54 L 36.18,12.63 L 35.75,12.75 L 35.64,12.84 L 35.51,13.01 L 35.57,13.12 L 35.46,13.44 L 35.10,13.65 L 34.80,13.75 L 33.31,14.10 L 32.27,14.19 L 30.06,14.54 L 28.94,15.07 L 28.40,15.62 L 27.85,16.24 L 27.56,16.65 L 26.95,17.55 L 26.60,18.12 L 25.87,19.36 L 25.44,20.12 L 24.54,21.75 L 24.00,22.73 L 22.10,26.01 L 20.93,27.84 L 20.42,28.53 L 19.47,29.75 L 19.10,30.09 L 18.46,30.59 L 18.28,30.52 L 16.36,30.50 L 14.75,30.88 L 13.99,31.18 L 12.55,31.84 L 12.10,32.20 L 11.71,32.55 L 11.62,32.71 L 11.52,33.04 L 11.61,33.18 L 11.42,34.31 L 10.69,35.23 L 10.11,35.64 L 8.62,37.12 L 8.00,38.19 L 8.00,38.60 L 7.51,39.58 L 6.76,39.88 L 6.25,39.79 L 5.43,39.81 L 5.00,40.00 L 4.83,40.20 L 4.68,40.43 L 4.89,39.30 L 5.06,38.48 L 5.50,37.07 L 5.74,36.41 L 6.34,35.29 L 6.66,34.76 L 7.44,33.89 L 7.85,33.49 L 8.82,32.84 L 9.33,32.54 L 10.51,32.08 L 12.55,31.56 L 13.31,31.41 L 14.50,30.96 L 15.07,30.66 L 16.14,29.62 L 16.42,29.30 L 17.01,28.50 L 17.32,28.06 L 17.99,26.98 L 18.35,26.40 L 19.15,24.99 L 20.55,22.46 L 21.18,21.30 L 22.51,19.06 L 23.17,17.97 L 24.44,16.04 L 25.05,15.14 L 26.11,13.75 L 27.30,12.50 L 27.93,12.06 L 29.49,11.48 L 30.31,11.24 L 32.09,11.06 L 32.98,11.02 L 34.74,11.25 L 37.11,12.06 L 37.52,12.28 L 38.32,12.44 L 38.74,12.47 L 39.71,12.20 L 40.24,12.01 L 41.59,11.22 L 44.30,9.37 L 45.89,8.22 L 48.62,6.30 L 49.91,5.41 L 52.10,3.98 L 53.13,3.32 L 54.88,2.33 L 55.71,1.89 L 57.13,1.32 L 57.81,1.08 L 58.99,0.89 L 59.56,0.83 M 39.81,34.18 L 40.97,34.45 L 41.44,34.65 L 42.30,35.07 L 42.57,35.32 L 43.00,35.84 L 43.00,36.11 L 42.92,36.35 L 42.77,36.45 L 42.41,36.64 L 42.15,36.72 L 40.94,36.95 L 40.21,36.98 L 38.72,36.97 L 38.08,36.86 L 36.92,36.58 L 36.67,36.33 L 36.06,35.44 L 35.99,34.91 L 36.10,34.70 L 36.43,34.31 L 36.74,34.19 L 37.44,34.00 L 37.92,34.00 M 25.21,33.01 L 27.68,33.21 L 29.22,33.49 L 29.86,33.69 L 31.03,34.12 L 31.41,34.36 L 32.00,34.86 L 32.00,35.12 L 31.90,35.45 L 31.72,35.57 L 31.29,35.79 L 30.98,35.85 L 29.51,36.00 L 28.63,35.93 L 26.81,35.68 L 26.01,35.43 L 24.56,34.86 L 24.21,34.46 L 23.64,33.71 L 23.51,33.38 L 23.58,33.27 L 23.82,33.10 L 24.09,33.06 L 24.73,33.01 Z" fill="rgba(47,39,29,1)"/>
<path d="M 6.52,73.68 L 6.54,73.94 L 6.29,74.34 L 6.50,74.89 L 6.70,75.12 L 7.55,75.31 L 8.02,75.36 L 9.12,75.16 L 8.75,75.37 L 7.97,75.63 L 5.97,76.39 L 5.13,77.00 L 4.87,77.50 L 4.45,78.69 L 4.30,79.68 L 4.17,80.73 L 4.10,81.38 L 3.97,82.78 L 3.90,83.63 L 3.71,86.39 L 3.68,87.97 L 3.71,88.64 L 3.80,89.91 L 3.91,90.44 L 4.15,91.44 L 4.34,91.85 L 4.76,92.63 L 5.04,92.94 L 5.65,93.54 L 6.03,93.78 L 7.77,94.60 L 9.00,94.90 L 9.57,95.01 L 10.15,95.09 L 10.53,95.14 L 12.32,95.37 L 13.55,95.51 L 16.25,95.80 L 17.89,95.98 L 21.38,96.33 L 23.37,96.53 L 27.52,96.93 L 29.80,97.15 L 34.49,97.59 L 37.00,97.82 L 42.12,98.29 L 44.79,98.52 L 50.22,99.00 L 53.00,99.24 L 59.08,99.77 L 61.86,100.00 L 67.24,100.46 L 69.68,100.67 L 74.41,101.06 L 76.54,101.24 L 80.66,101.57 L 82.51,101.71 L 86.07,101.98 L 87.65,102.10 L 90.69,102.31 L 92.03,102.40 L 94.60,102.55 L 95.72,102.61 L 97.86,102.71 L 98.79,102.74 L 100.55,102.78 L 101.30,102.78 L 102.72,102.77 L 103.32,102.75 L 105.44,102.60 L 106.17,102.45 L 107.44,102.11 L 107.88,101.87 L 108.67,101.33 L 109.00,101.00 L 109.94,99.51 L 110.43,98.16 L 110.62,97.36 L 110.83,96.01 L 110.82,96.41 L 110.77,97.60 L 110.74,98.15 L 110.69,99.07 L 110.64,99.92 L 110.49,100.99 L 110.41,101.46 L 110.15,102.02 L 109.58,102.68 L 109.31,102.92 L 109.16,102.85 L 109.50,102.00 L 109.74,101.56 L 109.84,101.15 L 109.42,101.32 L 109.18,101.55 L 108.79,102.39 L 108.51,103.82 L 108.51,104.15 L 108.29,104.64 L 108.14,104.86 L 107.56,105.18 L 107.21,105.32 L 106.17,105.50 L 104.00,105.66 L 102.76,105.70 L 100.27,105.62 L 99.69,105.59 L 98.70,105.49 L 98.24,105.44 L 97.60,105.31 L 97.22,105.20 L 96.71,105.01 L 96.50,104.91 L 96.35,104.71 L 96.31,104.60 L 96.48,104.33 L 97.10,103.82 L 97.34,103.65 L 97.37,103.42 L 97.31,103.32 L 96.74,103.23 L 96.38,103.19 L 95.20,103.23 L 92.75,103.43 L 91.85,103.52 L 90.34,103.61 L 89.63,103.63 L 88.53,103.59 L 88.03,103.56 L 87.39,103.39 L 87.00,103.01 L 87.00,102.87 L 86.74,102.62 L 86.58,102.50 L 86.05,102.30 L 83.75,102.02 L 83.11,102.02 L 82.23,102.07 L 81.85,102.11 L 81.47,102.24 L 81.33,102.33 L 81.41,102.57 L 82.00,103.09 L 82.28,103.29 L 82.44,103.56 L 82.45,103.68 L 82.05,103.80 L 81.77,103.84 L 80.76,103.82 L 78.50,103.63 L 78.16,103.60 L 77.06,103.49 L 76.44,103.44 L 74.86,103.30 L 74.02,103.22 L 72.02,103.05 L 70.98,102.96 L 68.65,102.76 L 66.25,102.56 L 60.74,102.11 L 52.00,101.41 L 50.11,101.26 L 46.71,100.97 L 45.08,100.83 L 42.19,100.56 L 40.80,100.43 L 38.40,100.17 L 37.25,100.04 L 35.31,99.79 L 34.39,99.67 L 32.89,99.42 L 32.20,99.30 L 31.12,99.06 L 30.64,98.95 L 29.96,98.71 L 29.39,98.35 L 29.07,97.96 L 28.01,97.43 L 27.44,97.21 L 26.21,97.03 L 25.62,96.99 L 24.66,97.21 L 24.00,98.00 L 24.00,98.14 L 23.76,98.39 L 23.61,98.51 L 23.12,98.71 L 21.00,99.00 L 20.50,99.00 L 19.69,98.91 L 19.31,98.84 L 18.75,98.62 L 18.50,98.50 L 18.19,98.16 L 18.00,97.50 L 18.00,97.25 L 17.81,96.84 L 17.68,96.65 L 17.24,96.37 L 16.99,96.25 L 16.28,96.09 L 14.94,96.00 L 14.05,96.00 L 12.92,96.28 L 12.70,96.37 L 12.48,96.60 L 12.50,97.00 L 12.67,97.27 L 12.65,97.65 L 12.59,97.82 L 12.20,98.02 L 11.97,98.09 L 11.29,98.12 L 10.93,98.11 L 10.07,97.98 L 9.18,97.82 L 7.25,97.10 L 4.90,95.59 L 4.29,94.99 L 3.30,93.97 L 2.84,93.49 L 2.11,92.63 L 1.43,91.80 L 0.87,90.57 L 1.25,89.50 L 1.30,88.27 L 1.24,87.60 L 1.08,86.29 L 0.93,85.80 L 0.77,85.36 L 0.68,85.22 L 0.49,85.00 L 0.46,85.00 L 0.65,82.60 L 0.73,81.71 L 0.86,80.22 L 0.93,79.52 L 1.07,78.39 L 1.14,77.86 L 1.31,77.02 L 1.39,76.63 L 1.61,76.02 L 1.84,75.47 L 2.55,74.82 L 4.18,74.09 L 4.97,73.81 L 6.06,73.63 L 6.28,73.61 M 103.75,74.50 L 103.87,74.57 L 104.11,74.97 L 104.50,76.01 L 104.73,76.72 L 105.86,78.46 L 106.51,79.34 L 108.12,81.07 L 108.95,81.89 L 110.58,83.15 L 110.97,83.42 L 111.66,83.77 L 112.53,84.00 L 112.77,84.00 L 113.17,84.19 L 113.35,84.31 L 113.62,84.75 L 114.00,86.92 L 114.00,87.85 L 113.83,89.45 L 113.73,90.20 L 113.38,91.34 L 113.19,91.84 L 112.71,92.40 L 111.90,92.44 L 111.77,92.36 L 111.54,92.52 L 111.42,92.65 L 111.22,93.16 L 111.18,93.39 L 111.20,92.04 L 111.17,90.24 L 111.09,89.40 L 110.89,87.78 L 110.72,87.10 L 110.33,85.83 L 110.07,85.40 L 109.51,84.66 L 109.16,84.55 L 106.71,83.20 L 105.24,81.82 L 104.63,80.94 L 103.49,79.10 L 103.09,78.06 L 102.42,75.93 L 102.38,75.57 L 102.51,75.56 L 102.91,75.12 L 103.08,74.85 L 103.36,74.56 L 103.50,74.45 M 36.58,82.37 L 37.57,83.14 L 39.64,84.59 L 40.79,85.15 L 43.80,86.28 L 45.48,86.53 L 48.92,86.82 L 50.67,86.66 L 52.88,86.34 L 52.81,86.36 L 52.43,86.55 L 51.92,87.19 L 51.72,87.53 L 51.67,88.27 L 52.30,89.21 L 52.63,89.42 L 52.99,89.59 L 52.09,89.74 L 50.89,89.80 L 48.48,89.81 L 47.27,89.68 L 44.87,89.32 L 43.69,89.00 L 41.36,88.27 L 40.25,87.77 L 38.48,86.90 L 38.94,86.68 L 39.16,86.50 L 39.60,85.75 L 39.80,85.41 L 39.88,85.08 L 39.53,85.22 L 39.42,85.31 L 38.98,85.16 L 38.74,85.03 L 38.09,84.48 L 37.75,84.17 L 36.97,83.30 L 35.74,81.72 L 35.00,80.66 M 59.40,84.75 L 59.67,85.22 L 60.36,85.74 L 60.73,85.93 L 61.60,85.90 L 62.05,85.81 L 62.66,85.46 L 62.42,85.68 L 60.90,86.68 L 58.89,87.87 L 57.81,88.31 L 56.07,88.93 L 56.32,88.43 L 56.39,88.14 L 56.19,87.54 L 56.03,87.25 L 55.41,86.73 L 54.09,86.20 L 53.98,86.17 L 54.16,86.15 L 55.79,85.60 L 58.92,84.31 L 59.15,84.15 M 30.74,62.98 L 30.23,65.41 L 30.17,66.65 L 30.17,69.14 L 30.34,70.37 L 30.81,72.83 L 31.22,74.01 L 32.13,76.35 L 32.74,77.44 L 33.92,79.34 L 33.01,78.23 L 32.54,77.69 L 31.69,76.78 L 30.63,75.77 L 30.27,75.48 L 29.78,75.01 L 29.57,74.79 L 29.37,74.46 L 29.31,74.32 L 29.42,74.14 L 29.92,74.02 L 30.31,74.02 L 30.74,73.83 L 30.73,73.40 L 30.57,73.23 L 30.02,73.15 L 29.16,73.40 L 28.95,73.53 L 28.73,73.99 L 28.65,74.25 L 28.68,74.93 L 28.77,75.65 L 29.57,77.53 L 30.06,78.52 L 31.53,80.63 L 34.25,83.60 L 34.78,84.08 L 35.66,84.87 L 36.07,85.23 L 36.61,85.69 L 35.07,84.57 L 34.19,83.72 L 31.25,80.34 L 29.67,77.94 L 29.08,76.69 L 28.04,74.15 L 27.71,72.85 L 27.19,70.22 L 27.13,68.90 L 27.14,66.25 L 27.35,64.94 L 27.89,62.32 L 28.33,61.11 L 28.40,62.59 L 28.60,63.13 L 28.98,63.70 L 29.18,63.89 L 29.64,63.69 L 29.90,63.48 L 30.60,62.38 L 30.79,62.04 L 31.25,61.18 L 31.50,60.72 L 32.03,59.66 M 64.88,79.06 L 63.22,81.21 L 62.81,81.72 L 62.01,82.60 L 61.62,83.01 L 60.91,83.64 L 60.58,83.92 L 60.04,84.22 L 59.47,84.22 L 59.29,84.05 L 60.22,83.39 L 63.76,80.30 L 65.34,78.31 M 43.33,64.32 L 44.04,65.52 L 45.34,67.38 L 45.97,68.22 L 47.04,69.30 L 48.32,69.92 L 48.73,69.89 L 48.92,69.74 L 48.91,69.65 L 48.24,69.34 L 47.90,69.20 L 47.51,68.73 L 47.51,67.98 L 47.64,67.78 L 47.59,67.00 L 47.52,66.56 L 47.42,66.25 L 47.53,66.46 L 47.85,67.05 L 48.46,68.12 L 48.69,68.45 L 49.10,68.97 L 49.19,68.97 L 49.76,68.55 L 50.39,67.87 L 50.80,67.38 L 51.35,66.69 L 51.24,66.85 L 50.86,67.43 L 50.34,68.39 L 50.00,69.41 L 50.00,69.65 L 50.13,69.95 L 50.22,70.07 L 50.51,70.14 L 50.84,70.16 L 51.87,69.58 L 52.43,69.20 L 53.79,67.91 L 54.49,67.20 L 55.16,66.37 L 54.51,67.26 L 53.57,68.71 L 53.29,69.27 L 52.86,70.29 L 52.82,70.66 L 52.85,71.32 L 53.04,71.54 L 53.44,72.62 L 53.03,73.16 L 52.48,73.37 L 51.43,74.17 L 51.05,74.89 L 51.11,75.24 L 51.08,76.57 L 50.88,77.59 L 50.72,78.00 L 50.20,79.62 L 49.89,80.89 L 49.81,81.42 L 49.54,82.38 L 49.30,82.76 L 48.75,83.43 L 48.43,83.63 L 48.29,83.69 L 48.38,83.62 L 48.71,83.29 L 49.29,82.33 L 49.55,81.82 L 49.82,80.67 L 49.90,79.97 L 49.79,78.97 L 49.69,78.54 L 49.28,78.11 L 49.04,77.98 L 48.41,78.19 L 47.31,79.25 L 46.90,79.80 L 46.61,80.98 L 46.57,81.32 L 46.62,82.11 L 46.87,83.58 L 46.71,83.30 L 46.47,81.93 L 46.47,80.51 L 46.55,79.75 L 46.62,78.37 L 46.52,77.73 L 46.38,77.52 L 46.04,77.17 L 45.76,77.08 L 45.13,76.95 L 44.68,76.93 L 42.50,76.86 L 44.75,75.78 L 46.26,74.88 L 46.83,74.31 L 46.90,74.05 L 46.89,73.54 L 46.67,73.31 L 46.09,72.86 L 45.58,72.67 L 44.68,71.71 L 44.53,70.68 L 44.70,70.03 L 44.71,68.75 L 44.47,67.59 L 44.24,66.90 L 43.71,65.42 L 43.35,64.60 L 42.72,63.25 M 67.94,79.45 L 66.11,82.16 L 66.08,82.19 L 68.04,79.29 M 66.54,59.27 L 67.12,60.43 L 67.66,62.04 L 67.81,62.79 L 68.20,63.87 L 68.40,64.33 L 68.88,64.83 L 69.13,65.00 L 69.66,64.89 L 69.93,64.75 L 70.49,64.01 L 70.55,63.92 L 70.70,64.70 L 70.81,65.96 L 70.91,68.53 L 70.82,69.88 L 70.41,72.11 L 70.39,72.05 L 69.67,71.96 L 69.28,72.02 L 68.38,72.76 L 67.22,74.75 L 66.89,75.68 L 65.78,77.60 L 66.18,76.79 L 67.26,74.15 L 67.56,72.65 L 68.00,69.52 L 68.00,67.72 L 67.71,63.38 L 67.20,60.93 L 66.76,59.85 L 66.27,58.84 M 105.57,39.17 L 106.32,39.29 L 107.46,39.69 L 107.97,39.92 L 108.61,40.54 L 109.00,41.72 L 109.00,42.22 L 109.49,42.73 L 110.94,42.73 L 111.49,42.58 L 112.47,42.76 L 113.40,43.61 L 113.55,43.99 L 114.23,44.59 L 115.47,45.00 L 115.77,45.00 L 116.22,45.27 L 116.42,45.47 L 116.67,46.25 L 116.78,46.72 L 116.87,48.17 L 116.88,51.25 L 116.85,52.97 L 116.61,56.55 L 116.54,57.38 L 116.37,58.84 L 116.11,60.50 L 115.96,61.20 L 115.64,62.14 L 115.46,62.56 L 114.89,63.04 L 114.55,63.25 L 113.47,63.42 L 111.02,63.50 L 110.04,63.50 L 108.60,63.61 L 107.94,63.69 L 106.94,64.07 L 106.47,64.31 L 105.65,65.10 L 104.29,66.90 L 103.66,67.83 L 102.96,69.52 L 103.34,68.32 L 104.01,67.21 L 105.52,65.11 L 106.49,64.30 L 108.55,62.85 L 109.74,62.47 L 112.09,61.60 L 112.69,61.34 L 112.91,61.23 L 113.26,61.03 L 113.31,60.97 L 113.53,60.26 L 113.70,59.33 L 113.80,58.69 L 113.99,57.30 L 114.09,56.49 L 114.29,54.79 L 114.38,53.88 L 114.62,50.65 L 114.65,48.87 L 114.56,48.13 L 114.33,46.77 L 114.09,46.22 L 113.52,45.20 L 113.08,44.80 L 112.11,44.06 L 111.44,43.77 L 109.97,43.24 L 109.03,43.03 L 107.00,42.64 L 105.75,42.47 L 103.08,42.14 L 101.48,41.98 L 99.93,41.82 L 100.33,41.66 L 100.51,41.53 L 100.69,41.18 L 100.64,40.50 L 100.53,40.22 L 100.52,39.79 L 100.54,39.60 L 100.82,39.33 L 101.01,39.21 L 101.62,39.08 L 102.95,39.00 L 103.94,39.00 M 15.21,67.70 L 15.02,68.18 L 15.32,67.23 M 15.61,60.85 L 15.89,62.52 L 15.89,63.39 L 15.80,65.12 L 15.75,65.37 L 15.82,62.56 L 15.77,61.83 L 15.53,60.65 M 59.25,58.01 L 59.11,58.01 L 58.46,58.43 L 58.10,58.69 L 57.20,59.54 L 56.26,60.46 L 54.08,63.02 L 53.88,63.26 L 55.32,61.35 L 56.40,60.10 L 56.90,59.61 L 57.87,58.72 L 58.27,58.44 L 59.00,58.01 L 59.25,58.01 M 60.49,58.12 L 61.00,58.28 L 61.00,58.38 L 60.65,58.98 L 60.09,59.79 L 59.68,60.35 L 59.42,60.69 L 59.84,60.06 L 60.07,59.70 L 60.35,59.15 L 60.46,58.90 L 60.52,58.55 L 60.52,58.40 L 60.38,58.21 L 59.34,58.02 M 41.84,56.35 L 42.56,56.96 L 42.94,57.47 L 43.73,58.65 L 44.17,59.48 L 44.36,59.86 L 42.77,57.64 L 42.37,57.15 L 41.65,56.45 L 40.77,56.00 L 40.80,56.00 M 32.50,58.72 L 32.67,58.36 L 32.72,58.30 M 11.65,54.76 L 12.86,55.88 L 13.39,56.52 L 14.39,57.84 L 14.42,57.89 L 13.41,56.56 L 12.87,55.91 L 11.66,54.77 L 11.50,54.63 M 38.04,52.62 L 35.73,54.49 L 34.73,55.63 L 33.08,57.75 L 34.06,56.30 L 34.78,55.32 L 36.48,53.69 L 37.37,52.92 L 39.07,51.88 M 64.91,52.51 L 65.62,53.33 L 66.99,55.04 L 67.58,55.99 L 67.71,56.21 L 66.52,54.46 L 64.21,51.87 M 57.41,50.59 L 58.43,51.05 L 58.95,51.32 L 60.05,52.07 L 61.16,52.88 L 61.67,53.39 L 58.64,51.20 L 57.31,50.57 M 8.24,37.97 L 7.93,38.96 L 7.39,41.11 L 7.23,42.46 L 7.00,45.35 L 7.00,47.07 L 7.07,49.81 L 7.20,51.18 L 7.31,51.65 L 7.55,52.46 L 7.72,52.68 L 8.04,52.94 L 7.74,52.73 L 7.57,52.55 L 7.32,51.89 L 7.21,51.52 L 7.08,50.46 L 7.00,48.39 L 7.00,47.45 L 6.94,46.11 L 6.89,45.52 L 6.70,44.79 L 6.58,44.50 L 6.22,44.28 L 5.43,44.39 L 5.13,44.50 L 4.69,44.55 L 4.49,44.54 L 4.26,44.30 L 4.16,44.13 L 4.10,43.55 L 4.18,42.24 L 4.24,41.75 L 4.43,41.00 L 4.53,40.66 L 4.83,40.20 L 5.00,40.00 L 5.43,39.81 L 6.25,39.79 L 6.76,39.88 L 7.51,39.58 L 8.00,38.60 L 8.00,38.19 L 8.62,37.12 L 8.93,36.80 M 39.39,51.68 L 39.49,51.62 L 39.73,51.52 M 51.64,46.11 L 53.77,46.41 L 54.81,46.67 L 56.87,47.28 L 57.85,47.70 L 59.79,48.60 L 60.70,49.16 L 61.54,49.72 L 59.87,48.75 L 58.52,48.06 L 56.03,47.27 L 55.47,47.14 L 54.52,47.05 L 54.08,47.03 L 53.47,47.21 L 53.22,47.33 L 53.05,47.80 L 53.41,48.86 L 53.58,49.13 L 54.22,49.48 L 51.73,48.96 L 50.29,48.90 L 47.41,48.96 L 46.00,49.22 L 43.81,49.75 L 44.26,49.59 L 45.68,48.88 L 46.28,48.53 L 46.85,47.93 L 47.02,47.65 L 46.67,47.26 L 45.07,47.00 L 44.21,47.00 L 42.30,47.48 L 41.33,47.78 L 39.30,48.77 L 38.29,49.32 L 36.29,50.68 L 35.32,51.39 L 35.65,51.08 L 37.65,49.58 L 38.68,48.97 L 40.78,47.86 L 41.85,47.45 L 44.01,46.71 L 45.10,46.47 L 47.29,46.10 L 48.38,46.04 L 50.56,46.00 M 47.11,10.99 L 45.58,12.20 L 44.97,12.70 L 43.87,13.61 L 43.53,13.92 L 43.00,14.43 L 43.00,14.48 L 43.53,14.94 L 44.37,15.50 L 44.98,15.88 L 46.32,16.69 L 47.13,17.16 L 48.82,18.13 L 49.75,18.64 L 52.41,20.15 L 54.01,21.08 L 54.66,21.48 L 55.87,22.23 L 56.27,22.50 L 56.93,22.96 L 57.00,23.06 L 58.01,23.74 L 59.13,24.24 L 59.74,24.43 L 61.71,25.27 L 62.92,25.99 L 63.27,26.32 L 64.30,27.04 L 65.42,27.72 L 66.14,28.13 L 69.38,29.91 L 71.21,30.82 L 76.56,33.74 L 78.10,34.66 L 78.70,35.06 L 79.78,35.81 L 80.09,36.07 L 81.21,36.94 L 81.80,37.24 L 82.99,37.77 L 83.55,37.89 L 84.64,38.04 L 85.10,37.96 L 85.96,37.71 L 86.25,37.42 L 86.39,36.90 L 86.27,36.35 L 86.11,35.95 L 85.70,35.08 L 85.37,34.51 L 84.63,33.28 L 84.12,32.51 L 83.02,30.87 L 82.33,29.88 L 80.84,27.78 L 79.94,26.54 L 78.03,23.94 L 77.35,23.03 L 77.79,23.60 L 78.69,24.76 L 80.34,26.85 L 81.14,27.86 L 82.60,29.63 L 83.30,30.49 L 84.58,31.96 L 85.20,32.66 L 86.31,33.85 L 86.84,34.41 L 87.79,35.31 L 88.24,35.73 L 89.04,36.37 L 90.07,37.04 L 91.05,37.54 L 92.98,38.79 L 93.42,39.10 L 94.16,39.68 L 94.94,40.43 L 95.38,40.95 L 96.32,41.43 L 94.81,41.27 L 93.68,41.13 L 91.56,40.87 L 90.76,40.77 L 89.36,40.57 L 89.03,40.50 L 87.45,40.29 L 85.90,40.12 L 84.95,40.03 L 80.76,39.69 L 78.55,39.56 L 71.25,39.06 L 68.84,38.87 L 67.77,38.78 L 65.76,38.60 L 65.00,38.53 L 62.31,38.28 L 60.19,38.11 L 59.06,38.02 L 54.42,37.69 L 52.50,37.59 L 50.76,37.49 L 49.31,37.40 L 48.48,37.34 L 44.83,37.10 L 42.69,36.94 L 41.44,36.86 L 42.15,36.72 L 42.41,36.64 L 42.77,36.45 L 42.92,36.35 L 43.00,36.11 L 43.00,35.84 L 42.57,35.32 L 42.30,35.07 L 41.44,34.65 L 40.97,34.45 L 39.81,34.18 L 37.92,34.00 L 37.44,34.00 L 36.74,34.19 L 36.43,34.31 L 36.10,34.70 L 35.99,34.91 L 36.06,35.44 L 36.67,36.33 L 36.86,36.52 L 35.93,36.45 L 31.22,36.10 L 29.70,35.98 L 30.98,35.85 L 31.29,35.79 L 31.72,35.57 L 31.90,35.45 L 32.00,35.12 L 32.00,34.86 L 31.41,34.36 L 31.03,34.12 L 29.86,33.69 L 29.22,33.49 L 27.68,33.21 L 25.21,33.01 L 24.73,33.01 L 24.09,33.06 L 23.82,33.10 L 23.58,33.27 L 23.51,33.38 L 23.64,33.71 L 24.21,34.46 L 24.56,34.86 L 26.01,35.43 L 26.81,35.68 L 28.24,35.88 L 22.39,35.47 L 18.41,35.26 L 16.75,35.21 L 15.16,35.16 L 14.47,35.15 L 13.18,35.13 L 12.65,35.14 L 11.70,35.16 L 11.36,35.19 L 10.80,35.25 L 10.68,35.29 L 9.56,36.18 L 10.11,35.64 L 10.69,35.23 L 11.42,34.31 L 11.61,33.18 L 11.52,33.04 L 11.62,32.71 L 11.71,32.55 L 12.10,32.20 L 12.55,31.84 L 13.99,31.18 L 14.75,30.88 L 16.36,30.50 L 18.28,30.52 L 18.46,30.59 L 19.10,30.09 L 19.47,29.75 L 20.42,28.53 L 20.93,27.84 L 22.10,26.01 L 22.60,25.14 L 21.99,26.27 L 20.97,28.24 L 20.58,29.05 L 19.89,30.51 L 19.70,30.99 L 19.43,31.76 L 19.49,31.82 L 20.10,31.95 L 21.00,32.08 L 21.68,32.16 L 23.19,32.33 L 24.14,32.44 L 26.17,32.65 L 27.36,32.77 L 29.84,33.02 L 31.23,33.16 L 34.10,33.43 L 35.65,33.58 L 42.15,34.18 L 45.70,34.49 L 52.65,35.10 L 55.77,35.37 L 58.82,35.64 L 60.22,35.77 L 62.92,36.01 L 64.12,36.12 L 66.42,36.32 L 67.38,36.41 L 69.19,36.58 L 69.89,36.64 L 71.14,36.76 L 71.53,36.80 L 72.14,36.86 L 72.19,36.87 L 72.82,36.73 L 73.24,36.42 L 73.37,36.21 L 73.08,35.83 L 72.50,35.37 L 72.04,35.05 L 71.00,34.35 L 70.33,33.92 L 68.90,33.00 L 68.04,32.48 L 66.25,31.39 L 65.24,30.79 L 63.14,29.55 L 62.00,28.88 L 57.19,26.12 L 54.54,24.64 L 50.24,22.24 L 47.64,20.80 L 46.47,20.16 L 44.21,18.93 L 43.19,18.39 L 41.23,17.37 L 40.35,16.94 L 38.66,16.13 L 37.91,15.80 L 36.46,15.19 L 35.82,14.96 L 34.58,14.56 L 34.03,14.43 L 32.96,14.23 L 32.49,14.21 L 31.99,14.23 L 32.27,14.19 L 33.31,14.10 L 34.80,13.75 L 35.10,13.65 L 35.46,13.44 L 35.57,13.12 L 35.51,13.01 L 35.64,12.84 L 35.75,12.75 L 36.18,12.63 L 38.30,12.54 L 39.18,12.59 L 40.98,12.34 L 41.40,12.26 L 42.13,12.03 L 42.94,11.61 L 43.22,11.40 L 43.59,11.14 L 43.75,11.04 L 43.91,11.01 L 43.97,11.02 L 43.92,11.21 L 43.63,11.75 L 43.46,12.04 L 43.28,12.45 L 43.22,12.64 L 43.27,12.84 L 43.33,12.92 L 43.60,12.91 L 43.77,12.88 L 44.28,12.66 L 44.56,12.52 L 45.30,12.09 L 45.70,11.84 L 46.67,11.19 L 47.19,10.84 L 48.40,9.97 L 49.17,9.40 M 29.99,14.65 L 28.60,15.53 L 27.96,16.26 L 26.82,17.75 L 26.95,17.55 L 27.56,16.65 L 27.85,16.24 L 28.40,15.62 L 28.94,15.07 L 30.06,14.54 L 30.29,14.51 M 54.36,5.70 L 54.50,5.61 L 55.34,5.18 M 56.63,4.56 L 56.68,4.54 L 57.25,4.41 M 60.71,4.27 L 61.01,4.38 L 60.69,4.27 L 59.91,4.20 L 59.92,4.20 M 57.92,4.26 L 57.95,4.25 L 59.40,4.22 Z" fill="rgba(61,50,40,1)"/>
<path d="M 60.69,4.27 L 62.05,4.73 L 62.39,4.89 L 63.13,5.40 L 63.51,5.69 L 64.37,6.50 L 64.82,6.95 L 65.88,8.15 L 66.44,8.80 L 67.78,10.45 L 68.49,11.34 L 70.18,13.53 L 73.20,17.50 L 74.56,19.29 L 76.91,22.44 L 78.03,23.94 L 79.94,26.54 L 80.84,27.78 L 82.33,29.88 L 83.02,30.87 L 84.12,32.51 L 84.63,33.28 L 85.37,34.51 L 85.70,35.08 L 86.11,35.95 L 86.27,36.35 L 86.39,36.90 L 86.25,37.42 L 85.96,37.71 L 85.10,37.96 L 84.64,38.04 L 83.55,37.89 L 82.99,37.77 L 82.93,37.74 L 82.95,37.55 L 82.86,37.29 L 82.61,36.70 L 82.37,36.27 L 81.79,35.31 L 81.37,34.67 L 80.43,33.27 L 79.81,32.39 L 78.46,30.51 L 77.62,29.36 L 75.82,26.91 L 74.74,25.46 L 72.45,22.39 L 71.11,20.60 L 66.84,14.78 L 65.58,13.01 L 65.01,12.19 L 63.91,10.60 L 63.43,9.89 L 62.52,8.52 L 62.15,7.94 L 61.47,6.85 L 61.22,6.42 L 60.79,5.64 L 60.68,5.39 L 60.52,4.96 L 60.56,4.90 L 60.25,4.27 L 60.10,4.22 M 82.00,36.65 L 82.00,36.94 L 82.05,37.35 L 81.80,37.24 L 81.21,36.94 L 80.80,36.62 L 81.00,36.50 L 81.71,36.37 M 75.29,33.03 L 75.79,33.32 L 74.01,32.35 M 69.41,29.92 L 69.38,29.91 L 69.35,29.89 M 62.93,25.99 L 63.29,26.32 L 64.40,27.09 L 65.65,27.84 L 66.47,28.31 L 66.88,28.54 L 66.14,28.13 L 65.42,27.72 L 64.30,27.04 L 63.27,26.32 L 62.92,25.99 L 61.71,25.27 L 59.74,24.43 L 61.71,25.27 M 57.46,4.40 L 56.19,5.01 L 55.41,5.45 L 53.76,6.40 L 52.85,6.96 L 51.02,8.13 L 50.10,8.74 L 49.53,9.13 L 49.71,8.99 L 50.40,8.46 L 51.62,7.57 L 52.21,7.14 L 53.24,6.44 L 54.23,5.77 L 55.81,4.93 L 56.55,4.58 L 57.87,4.26 L 57.90,4.26 Z" fill="rgba(123,207,198,1)"/>
<path d="M 0.68,85.22 L 0.77,85.36 L 0.93,85.80 L 1.08,86.29 L 1.24,87.60 L 1.30,88.27 L 1.25,89.50 L 0.87,90.58 L 0.75,90.66 L 0.53,90.55 L 0.43,90.46 L 0.25,90.06 L 0.10,89.60 L 0.00,88.06 L 0.00,87.22 L 0.11,85.90 L 0.15,85.62 L 0.23,85.24 L 0.38,85.00 L 0.49,85.00 Z" fill="rgba(131,121,88,1)"/>
<path d="M 60.25,4.27 L 60.56,4.90 L 60.52,4.96 L 60.68,5.39 L 60.79,5.64 L 61.22,6.42 L 61.47,6.85 L 62.15,7.94 L 62.52,8.52 L 63.43,9.89 L 63.91,10.60 L 65.01,12.19 L 65.58,13.01 L 66.84,14.78 L 71.11,20.60 L 72.45,22.39 L 74.74,25.46 L 75.82,26.91 L 77.62,29.36 L 78.46,30.51 L 79.81,32.39 L 80.43,33.27 L 81.37,34.67 L 81.79,35.31 L 82.37,36.27 L 82.61,36.70 L 82.86,37.29 L 82.95,37.55 L 82.92,37.84 L 82.61,38.00 L 82.44,38.00 L 82.18,37.69 L 82.07,37.50 L 82.00,36.94 L 82.00,36.65 L 81.71,36.37 L 81.00,36.50 L 80.72,36.67 L 80.29,36.68 L 80.00,36.24 L 80.00,36.12 L 79.39,35.59 L 79.00,35.29 L 77.74,34.47 L 77.04,34.03 L 75.29,33.03 L 72.29,31.43 L 71.24,30.89 L 69.20,29.81 L 68.21,29.28 L 66.47,28.31 L 65.65,27.84 L 64.40,27.09 L 63.29,26.32 L 62.93,25.99 L 61.71,25.27 L 59.74,24.43 L 59.13,24.24 L 58.01,23.74 L 57.00,23.06 L 56.93,22.96 L 56.27,22.50 L 55.87,22.23 L 54.66,21.48 L 54.01,21.08 L 52.41,20.15 L 49.75,18.64 L 48.82,18.13 L 47.13,17.16 L 46.32,16.69 L 44.98,15.88 L 44.37,15.50 L 43.53,14.94 L 43.00,14.48 L 43.00,14.32 L 43.59,13.65 L 43.97,13.27 L 45.17,12.28 L 45.83,11.76 L 47.44,10.58 L 48.28,9.98 L 50.10,8.74 L 51.02,8.13 L 52.85,6.96 L 53.76,6.40 L 55.41,5.45 L 56.19,5.01 L 57.46,4.40 L 58.71,4.00 L 59.37,4.00 Z" fill="rgba(190,243,246,1)"/>
<path d="M 40.79,85.15 L 39.64,84.59 L 39.64,84.59 M 49.79,81.50 L 49.49,82.60 L 49.21,83.13 L 49.04,83.29 L 48.32,83.70 L 48.29,83.69 L 48.43,83.63 L 48.75,83.43 L 49.30,82.76 L 49.54,82.38 L 49.81,81.42 M 49.88,80.95 L 49.89,80.89 L 50.20,79.62 L 50.72,78.00 L 50.20,79.65 M 44.68,76.93 L 45.13,76.95 L 45.76,77.08 L 46.04,77.17 L 46.38,77.52 L 46.52,77.73 L 46.62,78.37 L 46.61,78.48 L 46.50,77.85 L 46.36,77.61 L 46.00,77.20 L 45.72,77.10 L 45.09,76.95 L 44.65,76.93 L 44.58,76.93 M 54.56,49.55 L 55.97,49.93 L 58.64,51.20 L 58.80,51.31 L 58.48,51.65 L 58.42,52.58 L 58.53,53.15 L 58.85,54.32 L 59.11,54.83 L 59.72,55.79 L 60.10,56.04 L 60.51,56.67 L 60.85,57.46 L 61.03,58.00 L 61.77,60.48 L 62.09,61.96 L 62.58,64.80 L 62.74,66.51 L 62.74,67.34 L 62.68,68.99 L 62.56,69.86 L 62.28,71.66 L 62.05,72.67 L 61.53,74.74 L 61.16,75.95 L 60.98,76.44 L 60.64,77.31 L 60.49,77.58 L 60.20,78.00 L 60.10,78.00 L 59.84,77.53 L 59.71,76.80 L 59.67,76.26 L 59.61,75.08 L 59.61,74.36 L 59.61,72.86 L 59.63,72.03 L 59.78,68.54 L 59.93,66.79 L 60.29,63.36 L 60.54,62.01 L 60.82,60.12 L 60.81,59.80 L 60.76,59.73 L 60.62,59.67 L 60.50,59.75 L 60.21,59.98 L 60.00,60.20 L 59.52,60.73 L 59.21,61.11 L 58.52,61.96 L 58.09,62.51 L 57.16,63.70 L 57.13,63.75 L 58.25,62.27 L 58.79,61.56 L 59.68,60.35 L 60.09,59.79 L 60.65,58.98 L 61.00,58.38 L 61.00,58.28 L 60.49,58.12 L 59.25,58.01 L 59.00,58.01 L 58.27,58.44 L 57.87,58.72 L 56.90,59.61 L 56.40,60.10 L 55.32,61.35 L 54.75,62.11 L 55.60,60.95 L 56.44,59.89 L 56.79,59.46 L 57.46,58.68 L 57.70,58.45 L 58.57,57.44 L 58.79,56.89 L 58.71,56.60 L 58.39,55.99 L 58.01,55.58 L 57.10,54.69 L 56.39,54.06 L 54.37,51.84 L 53.94,51.19 L 53.83,50.93 L 53.68,50.45 L 53.73,50.30 L 53.66,49.72 L 53.34,49.39 L 53.07,49.27 L 52.69,49.16 M 44.19,76.05 L 44.75,75.78 L 44.19,76.05 M 67.26,74.15 L 66.58,75.82 L 67.28,74.07 M 68.00,69.52 L 67.56,72.65 L 67.29,74.02 L 67.57,72.53 L 68.00,69.29 M 32.93,58.06 L 32.25,59.31 L 30.83,62.83 L 30.29,65.28 L 30.21,66.53 L 30.17,69.03 L 30.34,70.27 L 30.56,71.51 L 30.34,70.37 L 30.17,69.14 L 30.17,66.65 L 30.23,65.41 L 30.74,62.98 L 32.09,59.49 L 32.84,58.07 L 33.72,56.94 M 54.55,67.20 L 53.60,68.67 L 53.31,69.24 L 52.87,70.28 L 52.82,70.66 L 52.85,71.32 L 52.82,70.66 L 52.86,70.29 L 53.29,69.27 L 53.57,68.71 L 54.51,67.26 L 56.51,64.54 L 56.60,64.43 M 67.20,60.93 L 67.71,63.38 L 67.94,66.77 L 67.54,62.71 L 66.80,59.94 M 66.76,59.85 L 66.77,59.86 L 66.62,59.57 M 65.74,57.76 L 66.19,58.68 L 65.40,57.31 M 62.34,53.87 L 63.40,54.85 L 63.74,55.27 L 62.29,53.96 L 61.23,53.43 L 59.86,52.45 L 59.49,51.84 L 59.51,51.82 M 38.86,52.03 L 39.24,51.76 L 39.82,51.47 M 43.78,49.80 L 40.12,51.32 L 41.86,50.47 L 43.19,49.90 L 44.18,49.66 M 47.35,48.98 L 46.28,49.17 L 47.41,48.96 L 47.51,48.96 M 47.53,66.46 L 47.86,67.05 L 48.47,68.12 L 48.70,68.45 L 49.11,68.97 L 49.19,68.97 L 49.19,68.97 L 49.10,68.97 L 48.69,68.45 L 48.46,68.12 L 47.85,67.05 L 47.53,66.46 L 46.79,64.99 L 45.61,62.47 L 46.79,64.99 Z" fill="rgba(206,235,116,1)"/>
<path d="M 59.78,51.19 L 59.67,51.66 L 59.49,51.84 L 59.86,52.45 L 61.23,53.43 L 62.29,53.96 L 64.08,55.57 L 64.92,56.46 L 66.21,58.71 L 66.79,59.91 L 67.54,62.71 L 68.00,67.41 L 68.00,69.29 L 67.57,72.53 L 67.28,74.07 L 66.21,76.73 L 65.59,78.01 L 63.80,80.27 L 60.22,83.39 L 58.92,84.31 L 55.79,85.60 L 54.16,86.15 L 50.67,86.66 L 48.92,86.82 L 48.78,86.81 L 50.76,86.31 L 51.84,85.69 L 54.00,84.19 L 55.16,83.07 L 56.94,81.21 L 57.87,80.04 L 58.22,79.49 L 58.82,78.44 L 58.99,77.95 L 59.25,77.01 L 59.25,76.59 L 59.54,74.93 L 59.61,74.83 L 59.61,75.08 L 59.67,76.26 L 59.71,76.80 L 59.84,77.53 L 60.10,78.00 L 60.20,78.00 L 60.49,77.58 L 60.64,77.31 L 60.98,76.44 L 61.16,75.95 L 61.53,74.74 L 62.05,72.67 L 62.28,71.66 L 62.56,69.86 L 62.68,68.99 L 62.74,67.34 L 62.74,66.51 L 62.58,64.80 L 62.09,61.96 L 61.77,60.48 L 61.03,58.00 L 60.85,57.46 L 60.51,56.67 L 60.10,56.04 L 59.72,55.79 L 59.11,54.83 L 58.85,54.32 L 58.53,53.15 L 58.42,52.58 L 58.48,51.65 L 59.10,51.00 L 59.44,51.00 M 36.55,82.34 L 37.54,83.12 L 39.62,84.56 L 40.79,85.10 L 41.42,85.38 L 40.79,85.15 L 39.62,84.59 L 37.54,83.12 L 36.54,82.34 L 35.54,81.27 M 30.29,65.29 L 30.21,66.54 L 30.18,69.05 L 30.34,70.30 L 30.79,72.76 L 30.79,72.74 L 30.34,70.27 L 30.17,69.03 L 30.21,66.53 L 30.29,65.28 L 30.83,62.83 L 32.25,59.31 L 30.83,62.83 M 60.76,59.73 L 60.81,59.80 L 60.82,60.12 L 60.54,62.01 L 60.29,63.36 L 59.93,66.79 L 59.87,67.44 L 59.89,66.62 L 60.00,65.40 L 60.28,62.97 L 60.51,61.91 L 60.82,60.12 L 60.81,59.82 L 60.76,59.77 L 60.62,59.72 L 60.49,59.80 L 60.20,60.04 L 59.99,60.26 L 59.52,60.79 L 59.20,61.16 L 58.53,62.00 L 58.10,62.54 L 57.19,63.70 L 56.63,64.41 L 54.57,67.19 L 53.61,68.67 L 53.32,69.24 L 52.87,70.28 L 52.82,70.66 L 52.85,71.31 L 52.82,70.66 L 52.87,70.28 L 53.31,69.24 L 53.60,68.67 L 54.55,67.20 L 56.60,64.43 L 57.16,63.70 L 58.09,62.51 L 58.52,61.96 L 59.21,61.11 L 59.52,60.73 L 60.00,60.20 L 60.21,59.98 L 60.50,59.75 L 60.62,59.67 Z" fill="rgba(191,231,70,1)"/>
<path d="M 51.69,48.86 L 53.07,49.27 L 53.34,49.39 L 53.66,49.72 L 53.73,50.30 L 53.68,50.45 L 53.83,50.93 L 53.94,51.19 L 54.37,51.84 L 56.39,54.06 L 57.10,54.69 L 58.01,55.58 L 58.39,55.99 L 58.71,56.60 L 58.79,56.89 L 58.57,57.44 L 57.70,58.45 L 57.46,58.68 L 56.79,59.46 L 56.44,59.89 L 55.60,60.95 L 52.95,64.57 L 52.11,65.79 L 50.59,67.69 L 50.25,68.09 L 49.71,68.63 L 49.20,68.97 L 49.11,68.97 L 48.70,68.45 L 48.47,68.12 L 47.86,67.05 L 47.53,66.46 L 46.79,64.99 L 45.61,62.47 L 45.08,61.30 L 44.17,59.48 L 43.73,58.65 L 42.94,57.47 L 42.56,56.96 L 41.84,56.35 L 40.80,56.00 L 40.36,56.00 L 39.85,56.17 L 39.66,56.30 L 39.69,56.94 L 39.77,57.35 L 40.40,58.74 L 40.59,59.15 L 41.11,60.15 L 42.07,61.97 L 42.55,62.89 L 43.35,64.60 L 43.71,65.42 L 44.24,66.90 L 44.47,67.59 L 44.71,68.75 L 44.70,70.03 L 44.53,70.68 L 44.68,71.71 L 45.58,72.67 L 46.09,72.86 L 46.67,73.31 L 46.89,73.54 L 46.90,74.05 L 46.83,74.31 L 46.26,74.88 L 44.75,75.78 L 44.19,76.05 L 43.49,76.41 L 43.21,76.56 L 43.06,76.74 L 43.05,76.81 L 43.45,76.88 L 44.65,76.93 L 45.09,76.95 L 45.72,77.10 L 46.00,77.20 L 46.36,77.61 L 46.50,77.85 L 46.63,78.61 L 46.65,80.25 L 46.61,81.16 L 46.99,82.48 L 47.23,83.04 L 47.95,83.55 L 48.32,83.70 L 49.04,83.29 L 49.21,83.13 L 49.49,82.60 L 49.79,81.50 L 49.88,80.95 L 50.20,79.65 L 50.72,78.00 L 50.88,77.59 L 51.08,76.57 L 51.11,75.24 L 51.05,74.89 L 51.43,74.17 L 52.48,73.37 L 53.03,73.16 L 53.44,72.62 L 53.04,71.54 L 52.85,71.32 L 52.82,70.66 L 52.87,70.28 L 53.32,69.24 L 53.61,68.67 L 54.57,67.19 L 56.63,64.41 L 57.19,63.70 L 58.10,62.54 L 58.53,62.00 L 59.20,61.16 L 59.52,60.79 L 59.99,60.26 L 60.20,60.04 L 60.49,59.80 L 60.62,59.72 L 60.76,59.77 L 60.81,59.82 L 60.82,60.12 L 60.51,61.91 L 60.28,62.97 L 60.00,65.40 L 59.89,66.62 L 59.85,69.04 L 59.86,70.21 L 60.05,72.18 L 60.11,72.62 L 60.28,73.35 L 60.59,74.15 L 60.80,74.48 L 60.81,74.80 L 60.28,74.67 L 60.13,74.58 L 59.86,74.60 L 59.74,74.65 L 59.54,74.93 L 59.25,76.59 L 59.25,77.01 L 58.99,77.95 L 58.82,78.44 L 58.22,79.49 L 57.87,80.04 L 56.94,81.21 L 55.16,83.07 L 54.00,84.19 L 51.84,85.69 L 50.76,86.31 L 48.58,86.86 L 47.47,87.02 L 45.02,86.65 L 44.38,86.50 L 43.01,86.04 L 42.31,85.78 L 40.79,85.10 L 40.53,84.98 L 40.49,84.71 L 40.28,84.26 L 40.09,83.93 L 39.15,82.36 L 38.47,81.36 L 36.73,78.51 L 36.32,77.73 L 36.19,77.43 L 36.00,76.90 L 36.00,76.77 L 35.35,75.57 L 34.39,74.52 L 33.78,74.02 L 31.56,72.23 L 33.39,66.36 L 34.16,64.00 L 34.63,62.67 L 34.85,62.11 L 35.28,61.08 L 35.48,60.67 L 35.88,59.91 L 36.08,59.63 L 36.88,58.73 L 37.31,58.60 L 38.21,58.53 L 38.75,58.73 L 39.47,58.94 L 39.78,58.93 L 39.85,58.84 L 39.95,58.62 L 39.92,58.43 L 39.82,57.99 L 39.70,57.67 L 39.54,56.49 L 39.77,56.00 L 40.03,56.00 L 40.72,55.66 L 41.00,55.15 L 41.00,54.83 L 41.51,53.43 L 42.27,52.24 L 42.75,51.70 L 43.69,50.60 L 43.97,50.18 L 43.92,50.11 L 43.69,50.04 L 43.38,50.11 L 42.61,50.32 L 42.32,50.41 L 43.78,49.80 L 44.92,49.41 L 47.35,48.98 L 48.54,48.82 L 50.69,48.81 M 39.32,83.70 L 39.49,83.98 L 39.87,84.52 L 40.05,84.70 L 40.22,84.84 L 39.62,84.56 L 38.05,83.47 L 38.05,83.47 L 38.81,83.41 M 32.65,77.00 L 34.04,79.30 L 34.77,80.31 L 35.28,80.99 L 34.83,80.51 L 34.02,79.55 L 32.70,77.41 L 32.09,76.31 L 31.19,73.96 L 31.18,73.95 M 30.76,63.15 L 30.83,62.83 L 30.88,62.71 M 32.89,58.12 L 32.93,58.06 L 33.01,57.94 M 34.98,55.23 L 35.16,55.00 L 35.48,54.71 M 37.77,52.67 L 37.81,52.64 L 37.86,52.61 M 39.68,51.55 L 39.95,51.39 L 41.00,50.96 Z" fill="rgba(215,238,147,1)"/>
<path d="M 107.88,101.87 L 107.44,102.11 L 106.17,102.45 L 105.44,102.60 L 105.42,102.60 L 106.13,102.46 L 107.41,102.11 L 107.86,101.87 L 108.66,101.34 M 23.88,96.56 L 25.45,96.69 L 28.74,96.95 L 30.60,97.10 L 34.45,97.42 L 36.55,97.60 L 40.85,97.97 L 43.12,98.16 L 52.55,99.00 L 57.50,99.45 L 62.94,99.95 L 65.43,100.17 L 70.27,100.61 L 72.47,100.80 L 76.73,101.18 L 78.66,101.34 L 82.39,101.66 L 84.07,101.79 L 87.31,102.05 L 88.76,102.16 L 91.55,102.36 L 92.72,102.44 L 92.03,102.40 L 90.69,102.31 L 87.65,102.10 L 86.07,101.98 L 82.51,101.71 L 80.66,101.57 L 76.54,101.24 L 74.41,101.06 L 69.68,100.67 L 67.24,100.46 L 61.86,100.00 L 59.08,99.77 L 53.00,99.24 L 50.22,99.00 L 44.79,98.52 L 42.12,98.29 L 37.00,97.82 L 34.49,97.59 L 29.80,97.15 L 27.52,96.93 L 23.37,96.53 L 23.26,96.52 M 8.94,75.33 L 8.92,75.58 L 8.76,76.79 L 8.59,77.88 L 8.49,78.40 L 7.93,82.74 L 7.84,85.47 L 7.93,86.71 L 8.20,89.09 L 8.47,90.12 L 9.09,92.04 L 9.54,92.79 L 10.70,94.52 L 11.44,95.26 L 10.53,95.14 L 10.15,95.09 L 9.57,95.01 L 9.00,94.90 L 7.77,94.60 L 6.03,93.78 L 5.65,93.54 L 5.04,92.94 L 4.76,92.63 L 4.34,91.85 L 4.15,91.44 L 3.91,90.44 L 3.80,89.91 L 3.71,88.64 L 3.68,87.97 L 3.71,86.39 L 3.90,83.63 L 3.97,82.78 L 4.10,81.38 L 4.17,80.73 L 4.30,79.68 L 4.45,78.69 L 4.87,77.50 L 5.13,77.00 L 5.97,76.39 L 7.97,75.63 L 8.75,75.37 L 9.16,75.14 M 43.92,50.11 L 43.97,50.18 L 43.69,50.60 L 42.75,51.70 L 42.27,52.24 L 41.51,53.43 L 41.00,54.83 L 41.00,55.15 L 40.72,55.66 L 40.03,56.00 L 39.77,56.00 L 39.54,56.49 L 39.70,57.67 L 39.82,57.99 L 39.92,58.43 L 39.95,58.62 L 39.85,58.84 L 39.78,58.93 L 39.47,58.94 L 38.75,58.73 L 38.21,58.53 L 37.31,58.60 L 36.88,58.73 L 36.08,59.63 L 35.88,59.91 L 35.48,60.67 L 35.28,61.08 L 34.85,62.11 L 34.63,62.67 L 34.16,64.00 L 33.39,66.36 L 31.56,72.23 L 33.78,74.02 L 34.39,74.52 L 35.35,75.57 L 36.00,76.77 L 36.00,76.90 L 36.19,77.43 L 36.32,77.73 L 36.73,78.51 L 38.47,81.36 L 39.15,82.36 L 40.09,83.93 L 40.28,84.26 L 40.49,84.71 L 40.53,85.00 L 40.42,85.00 L 40.05,84.70 L 39.87,84.52 L 39.49,83.98 L 39.32,83.70 L 38.81,83.41 L 38.05,83.47 L 37.94,83.54 L 37.54,83.38 L 37.32,83.26 L 36.77,82.75 L 36.19,82.18 L 34.77,80.31 L 34.04,79.30 L 32.65,77.00 L 31.06,73.68 L 30.64,72.58 L 30.22,70.26 L 30.07,69.09 L 30.14,66.72 L 30.23,65.53 L 30.75,63.18 L 31.07,62.02 L 32.00,59.79 L 32.51,58.71 L 33.81,56.70 L 34.51,55.73 L 36.13,54.02 L 36.98,53.22 L 38.88,51.91 L 42.00,50.50 L 42.61,50.32 L 43.38,50.11 L 43.69,50.04 M 14.47,35.15 L 15.16,35.16 L 16.75,35.21 L 18.41,35.26 L 19.66,35.33 L 18.44,35.35 L 17.56,35.47 L 15.93,35.78 L 15.31,36.05 L 14.19,36.68 L 13.77,37.13 L 13.03,38.12 L 12.76,38.78 L 12.28,40.20 L 12.10,41.09 L 11.76,42.98 L 11.61,44.12 L 11.17,49.19 L 11.15,50.61 L 11.18,51.23 L 11.26,52.40 L 11.34,52.90 L 11.52,53.82 L 11.65,54.18 L 11.93,54.82 L 12.10,55.04 L 12.47,55.39 L 12.69,55.45 L 13.15,55.50 L 13.41,55.40 L 14.15,55.41 L 14.79,55.64 L 15.15,55.85 L 16.68,56.90 L 17.40,57.67 L 19.13,60.51 L 19.85,62.78 L 19.97,63.96 L 20.06,66.30 L 19.86,67.35 L 19.28,69.33 L 18.72,70.04 L 16.66,71.92 L 14.78,73.24 L 13.81,73.81 L 11.89,74.85 L 11.14,75.13 L 10.45,75.37 L 10.19,75.40 L 9.75,75.42 L 9.65,75.32 L 9.17,75.13 L 10.19,74.55 L 10.88,74.09 L 12.12,72.92 L 12.70,72.30 L 13.70,70.87 L 14.16,70.13 L 14.88,68.52 L 15.21,67.70 L 15.63,65.98 L 15.80,65.12 L 15.89,63.39 L 15.89,62.52 L 15.61,60.85 L 14.74,58.50 L 14.39,57.84 L 13.39,56.52 L 12.86,55.88 L 11.65,54.76 L 11.04,54.23 L 9.86,53.49 L 8.35,53.00 L 8.10,53.00 L 7.72,52.68 L 7.55,52.46 L 7.31,51.65 L 7.20,51.18 L 7.07,49.81 L 7.00,47.07 L 7.00,45.35 L 7.23,42.46 L 7.39,41.11 L 7.93,38.96 L 8.24,37.97 L 9.08,36.56 L 10.68,35.29 L 10.80,35.25 L 11.36,35.19 L 11.70,35.16 L 12.65,35.14 L 13.18,35.13 M 67.77,38.78 L 68.84,38.87 L 71.25,39.06 L 78.55,39.56 L 80.76,39.69 L 84.95,40.03 L 85.90,40.12 L 87.45,40.29 L 89.03,40.50 L 87.42,40.28 L 85.84,40.12 L 84.86,40.03 L 80.55,39.68 L 78.25,39.55 L 70.98,39.05 L 68.68,38.86 L 67.69,38.78 L 67.17,38.73 M 54.42,37.69 L 55.22,37.75 L 54.29,37.69 M 42.69,36.94 L 44.83,37.10 L 48.48,37.34 L 49.31,37.40 L 50.76,37.49 L 51.97,37.56 L 51.49,37.53 L 47.02,37.26 L 43.46,37.01 L 41.54,36.87 L 39.86,36.74 M 72.19,36.87 L 72.14,36.86 L 71.53,36.80 L 71.14,36.76 L 69.89,36.64 L 69.19,36.58 L 67.38,36.41 L 66.42,36.32 L 66.24,36.31 L 66.79,36.36 L 67.69,36.44 L 69.38,36.59 L 70.03,36.65 L 71.20,36.75 L 71.56,36.79 L 72.14,36.85 L 72.19,36.86 L 72.82,36.73 L 73.24,36.42 L 72.82,36.73 M 32.96,14.23 L 33.81,14.39 L 33.68,14.52 L 33.48,14.77 L 32.57,15.95 L 31.99,16.79 L 30.77,18.61 L 30.09,19.67 L 28.72,21.85 L 28.03,22.98 L 26.67,25.25 L 26.06,26.32 L 24.88,28.40 L 24.42,29.28 L 23.59,30.90 L 23.36,31.44 L 23.17,31.93 L 23.13,32.10 L 23.10,32.32 L 21.68,32.16 L 21.00,32.08 L 20.10,31.95 L 19.49,31.82 L 19.43,31.76 L 19.70,30.99 L 19.89,30.51 L 20.58,29.05 L 20.97,28.24 L 21.99,26.27 L 23.79,22.95 L 24.62,21.46 L 26.02,19.04 L 26.69,17.92 L 27.96,16.26 L 28.60,15.53 L 29.99,14.65 L 30.73,14.30 L 32.49,14.21 M 72.41,35.34 L 71.92,35.01 L 70.83,34.29 L 70.13,33.85 L 68.64,32.91 L 67.77,32.38 L 65.95,31.28 L 64.94,30.69 L 62.87,29.46 L 61.76,28.81 L 57.18,26.15 L 54.78,24.79 L 52.34,23.41 L 54.54,24.64 L 57.19,26.12 L 62.00,28.88 L 63.14,29.55 L 65.24,30.79 L 66.25,31.39 L 68.04,32.48 L 68.90,33.00 L 70.33,33.92 L 71.00,34.35 L 72.04,35.05 L 72.50,35.37 L 73.08,35.83 L 73.37,36.21 L 73.04,35.82 Z" fill="rgba(245,238,198,1)"/>
<path d="M 35.08,14.24 L 35.47,14.40 L 36.58,14.92 L 37.19,15.21 L 38.70,15.98 L 39.49,16.39 L 41.32,17.35 L 43.22,18.36 L 47.68,20.81 L 49.97,22.07 L 54.78,24.79 L 57.18,26.15 L 61.76,28.81 L 62.87,29.46 L 64.94,30.69 L 65.95,31.28 L 67.77,32.38 L 68.64,32.91 L 70.13,33.85 L 70.83,34.29 L 71.92,35.01 L 72.41,35.34 L 73.04,35.82 L 73.37,36.21 L 73.24,36.42 L 72.82,36.73 L 72.19,36.86 L 72.14,36.85 L 71.56,36.79 L 71.20,36.75 L 70.03,36.65 L 69.38,36.59 L 67.69,36.44 L 66.79,36.36 L 64.65,36.17 L 63.53,36.07 L 61.01,35.85 L 59.71,35.74 L 56.87,35.50 L 53.97,35.25 L 47.50,34.70 L 44.67,34.46 L 46.41,34.61 L 48.71,34.79 L 53.14,35.15 L 55.02,35.30 L 56.84,35.44 L 57.63,35.50 L 59.14,35.62 L 59.76,35.67 L 60.91,35.75 L 61.33,35.78 L 62.06,35.83 L 62.25,35.84 L 63.94,35.84 L 64.69,35.71 L 64.87,35.58 L 65.09,35.28 L 65.00,35.05 L 64.69,34.56 L 64.32,34.23 L 63.46,33.53 L 62.81,33.10 L 61.38,32.18 L 60.45,31.64 L 58.44,30.49 L 57.21,29.83 L 54.60,28.44 L 53.07,27.66 L 49.31,25.66 L 47.00,24.39 L 46.02,23.82 L 44.20,22.75 L 43.55,22.33 L 42.46,21.60 L 42.26,21.41 L 40.89,20.41 L 39.92,20.00 L 39.56,20.00 L 37.72,19.36 L 36.26,18.43 L 35.59,17.86 L 34.32,16.69 L 33.94,16.16 L 33.61,15.66 L 33.54,15.44 L 33.47,15.05 L 33.55,14.92 L 33.73,14.47 L 33.99,14.20 L 34.31,14.00 L 34.43,14.00 M 26.68,25.35 L 26.09,26.42 L 24.95,28.51 L 24.50,29.38 L 23.68,30.99 L 23.44,31.52 L 23.23,32.00 L 23.18,32.15 L 23.12,32.38 L 23.09,32.36 L 23.13,32.10 L 23.17,31.93 L 23.36,31.44 L 23.59,30.90 L 24.42,29.28 L 24.88,28.40 L 26.06,26.32 L 26.67,25.25 L 27.87,23.25 Z" fill="rgba(239,171,181,1)"/>
<path d="M 21.89,35.32 L 24.87,35.50 L 30.29,35.95 L 31.97,36.10 L 35.73,36.42 L 37.65,36.57 L 41.54,36.87 L 43.46,37.01 L 47.02,37.26 L 51.49,37.53 L 53.96,37.67 L 59.23,38.02 L 60.48,38.11 L 62.67,38.29 L 65.20,38.53 L 65.85,38.61 L 67.69,38.78 L 68.68,38.86 L 70.98,39.05 L 78.25,39.55 L 80.55,39.68 L 84.86,40.03 L 85.84,40.12 L 87.42,40.28 L 89.03,40.50 L 89.36,40.57 L 90.76,40.77 L 91.56,40.87 L 93.68,41.13 L 94.81,41.27 L 97.39,41.55 L 101.48,41.98 L 103.08,42.14 L 105.75,42.47 L 107.00,42.64 L 109.03,43.03 L 109.97,43.24 L 111.44,43.77 L 112.11,44.06 L 113.08,44.80 L 113.52,45.20 L 114.09,46.22 L 114.33,46.77 L 114.56,48.13 L 114.65,48.87 L 114.62,50.65 L 114.38,53.88 L 114.29,54.79 L 114.09,56.49 L 113.99,57.30 L 113.80,58.69 L 113.70,59.33 L 113.53,60.26 L 113.31,60.97 L 113.26,61.03 L 112.91,61.23 L 112.69,61.34 L 112.09,61.60 L 109.74,62.47 L 108.55,62.85 L 106.49,64.30 L 105.52,65.11 L 104.01,67.21 L 103.34,68.32 L 102.54,70.84 L 102.30,74.81 L 102.42,75.93 L 103.09,78.06 L 103.49,79.10 L 104.63,80.94 L 105.24,81.82 L 106.71,83.20 L 109.16,84.55 L 109.51,84.66 L 110.07,85.40 L 110.33,85.83 L 110.72,87.10 L 110.89,87.78 L 111.09,89.40 L 111.17,90.24 L 111.20,92.04 L 111.18,93.87 L 110.62,97.36 L 110.43,98.16 L 109.94,99.51 L 109.00,101.00 L 108.67,101.33 L 107.86,101.87 L 107.41,102.11 L 106.13,102.46 L 105.40,102.61 L 103.35,102.76 L 102.77,102.79 L 101.42,102.80 L 100.71,102.80 L 99.05,102.76 L 98.18,102.73 L 96.19,102.64 L 95.15,102.59 L 92.78,102.44 L 91.55,102.36 L 88.76,102.16 L 87.31,102.05 L 84.07,101.79 L 82.39,101.66 L 78.66,101.34 L 76.73,101.18 L 72.47,100.80 L 70.27,100.61 L 65.43,100.17 L 62.94,99.95 L 57.50,99.45 L 52.55,99.00 L 43.12,98.16 L 40.85,97.97 L 36.55,97.60 L 34.45,97.42 L 30.60,97.10 L 28.74,96.95 L 25.45,96.69 L 23.88,96.56 L 21.26,96.37 L 20.05,96.28 L 18.21,96.16 L 16.47,96.08 L 15.32,96.06 L 13.70,95.94 L 12.97,95.86 L 11.93,95.50 L 11.46,95.28 L 10.70,94.52 L 9.54,92.79 L 9.09,92.04 L 8.47,90.12 L 8.20,89.09 L 7.93,86.71 L 7.84,85.47 L 7.93,82.74 L 8.49,78.40 L 8.59,77.88 L 8.76,76.79 L 8.92,75.58 L 8.94,75.33 L 9.17,75.13 L 9.65,75.32 L 9.75,75.42 L 10.19,75.40 L 10.45,75.37 L 11.14,75.13 L 11.89,74.85 L 13.81,73.81 L 14.78,73.24 L 16.66,71.92 L 18.72,70.04 L 19.28,69.33 L 19.86,67.35 L 20.06,66.30 L 19.97,63.96 L 19.85,62.78 L 19.13,60.51 L 17.40,57.67 L 16.68,56.90 L 15.15,55.85 L 14.79,55.64 L 14.15,55.41 L 13.41,55.40 L 13.15,55.50 L 12.69,55.45 L 12.47,55.39 L 12.10,55.04 L 11.93,54.82 L 11.65,54.18 L 11.52,53.82 L 11.34,52.90 L 11.26,52.40 L 11.18,51.23 L 11.15,50.61 L 11.17,49.19 L 11.61,44.12 L 11.76,42.98 L 12.10,41.09 L 12.28,40.20 L 12.76,38.78 L 13.03,38.12 L 13.77,37.13 L 14.19,36.68 L 15.31,36.05 L 15.93,35.78 L 17.56,35.47 L 18.44,35.35 L 20.68,35.31 M 84.08,88.00 L 83.41,88.64 L 83.00,90.50 L 83.00,91.19 L 83.29,92.27 L 84.00,93.00 L 84.27,93.00 L 84.71,92.73 L 84.89,92.56 L 85.00,92.08 L 85.00,91.83 L 85.18,90.97 L 85.61,89.58 L 85.81,89.06 L 85.65,88.40 L 84.61,88.00 M 48.38,46.04 L 47.29,46.10 L 45.10,46.47 L 44.01,46.71 L 41.85,47.45 L 40.78,47.86 L 38.68,48.97 L 37.65,49.58 L 35.65,51.08 L 32.81,53.79 L 31.80,54.91 L 30.18,57.30 L 29.44,58.51 L 28.36,61.04 L 27.89,62.32 L 27.35,64.94 L 27.14,66.25 L 27.13,68.90 L 27.19,70.22 L 27.71,72.85 L 28.04,74.15 L 29.08,76.69 L 29.67,77.94 L 31.25,80.34 L 34.19,83.72 L 35.07,84.57 L 37.05,86.01 L 38.06,86.69 L 40.25,87.77 L 41.36,88.27 L 43.69,89.00 L 44.87,89.32 L 47.27,89.68 L 48.48,89.81 L 50.89,89.80 L 52.09,89.74 L 54.44,89.35 L 55.60,89.10 L 57.81,88.31 L 58.89,87.87 L 60.90,86.68 L 62.42,85.68 L 64.94,83.37 L 66.11,82.16 L 67.94,79.45 L 68.77,78.05 L 69.90,74.95 L 70.82,69.88 L 70.91,68.53 L 70.81,65.96 L 70.70,64.70 L 70.23,62.32 L 69.95,61.16 L 69.13,58.99 L 68.69,57.94 L 67.58,55.99 L 66.99,55.04 L 65.62,53.33 L 64.91,52.51 L 63.31,51.05 L 62.49,50.36 L 60.70,49.16 L 59.79,48.60 L 57.85,47.70 L 56.87,47.28 L 54.81,46.67 L 53.77,46.41 L 51.64,46.11 L 50.56,46.00 M 85.31,74.00 L 84.84,74.22 L 84.62,74.37 L 84.34,74.97 L 84.21,75.33 L 84.08,76.41 L 84.00,78.70 L 84.00,79.39 L 84.08,80.47 L 84.12,80.97 L 84.28,81.68 L 84.37,81.98 L 84.59,82.33 L 84.71,82.45 L 84.98,82.43 L 85.11,82.38 L 85.41,82.01 L 85.55,81.78 L 85.85,81.07 L 86.00,80.67 L 86.28,79.61 L 86.42,79.05 L 86.67,77.66 L 86.79,76.92 L 86.89,75.84 L 86.92,75.36 L 86.82,74.72 L 86.75,74.45 L 86.42,74.16 L 85.63,74.00 M 86.62,59.29 L 86.26,59.75 L 86.08,60.03 L 85.78,60.87 L 85.64,61.33 L 85.41,62.47 L 85.19,64.43 L 85.13,65.33 L 85.11,66.67 L 85.12,67.27 L 85.24,68.07 L 85.31,68.41 L 85.59,68.74 L 86.19,68.77 L 86.38,68.71 L 86.74,68.25 L 86.92,67.97 L 87.22,67.13 L 87.36,66.67 L 87.59,65.53 L 87.69,64.93 L 87.81,63.57 L 87.87,62.67 L 87.89,61.33 L 87.88,60.73 L 87.76,59.93 L 87.69,59.59 L 87.41,59.26 L 86.81,59.23 M 87.13,49.00 L 86.55,49.65 L 86.30,50.04 L 86.03,51.17 L 85.93,51.75 L 86.02,52.93 L 86.64,54.31 L 86.92,54.59 L 87.49,54.69 L 87.76,54.67 L 88.24,54.24 L 88.47,53.97 L 88.79,53.11 L 88.92,52.63 L 89.00,51.44 L 89.00,50.69 L 88.60,49.66 L 87.50,49.00 Z" fill="rgba(247,231,135,1)"/>
<path d="M 41.50,34.20 L 39.02,34.00 L 34.48,33.60 L 33.40,33.51 L 31.39,33.32 L 30.42,33.23 L 28.68,33.07 L 27.85,32.98 L 26.43,32.84 L 25.76,32.77 L 24.70,32.65 L 24.22,32.59 L 23.58,32.51 L 23.14,32.42 L 23.11,32.39 L 23.18,32.15 L 23.23,32.00 L 23.44,31.52 L 23.68,30.99 L 24.50,29.38 L 24.95,28.51 L 26.09,26.42 L 26.68,25.35 L 27.97,23.07 L 28.62,21.93 L 29.91,19.73 L 30.53,18.66 L 31.65,16.82 L 32.18,15.98 L 32.97,14.78 L 33.15,14.53 L 33.40,14.20 L 33.63,14.00 L 33.77,14.00 L 33.81,14.27 L 33.55,14.92 L 33.47,15.05 L 33.54,15.44 L 33.61,15.66 L 33.94,16.16 L 34.32,16.69 L 35.59,17.86 L 36.26,18.43 L 37.72,19.36 L 39.56,20.00 L 39.92,20.00 L 40.89,20.41 L 42.26,21.41 L 42.46,21.60 L 43.55,22.33 L 44.20,22.75 L 46.02,23.82 L 47.00,24.39 L 49.31,25.66 L 53.07,27.66 L 54.60,28.44 L 57.21,29.83 L 58.44,30.49 L 60.45,31.64 L 61.38,32.18 L 62.81,33.10 L 63.46,33.53 L 64.32,34.23 L 64.69,34.56 L 65.00,35.05 L 65.09,35.28 L 64.87,35.58 L 64.69,35.71 L 63.94,35.84 L 62.25,35.84 L 62.06,35.83 L 61.33,35.78 L 60.91,35.75 L 59.76,35.67 L 59.14,35.62 L 57.63,35.50 L 56.84,35.44 L 55.02,35.30 L 53.14,35.15 L 48.71,34.79 L 46.41,34.61 Z" fill="rgba(250,181,195,1)"/>
</g>
</svg>